<svg width="733" height="727" viewBox="0 0 733 727" fill="none" xmlns="http://www.w3.org/2000/svg">
<path d="M75.3022 453.073L84.11 457.215C84.11 457.215 87.6196 449.886 95.3674 453.368C99.3916 455.177 100.22 458.74 100.111 461.121C99.9838 463.886 98.4313 466.373 96.0989 467.895C93.4367 469.634 89.1002 470.313 83.6599 466.486L77.5276 479.295L86.2371 483.39L88.4669 478.734C88.4669 478.734 102.18 481.347 108.567 468.009C114.678 455.245 104.547 446.85 99.6027 444.526C95.8218 442.748 82.5091 437.598 75.3022 453.073Z" fill="#E0E0E0"/>
<path d="M84.7364 486.783L75.8965 482.626L71.9792 490.807L80.8191 494.964L84.7364 486.783Z" fill="#E0E0E0"/>
<path d="M160.833 594.681L170.781 597.469C170.781 597.469 173.144 589.191 181.867 591.477C186.397 592.663 187.9 596.244 188.209 598.753C188.568 601.666 187.388 604.539 185.221 606.538C182.747 608.822 178.334 610.292 171.964 607.241L167.835 621.707L177.671 624.465L179.173 619.206C179.173 619.206 193.978 619.538 198.279 604.471C202.394 590.056 190.303 583.051 184.719 581.486C180.45 580.291 165.609 577.237 160.833 594.681Z" fill="#E0E0E0"/>
<path d="M176.7 628.291L166.716 625.493L164.078 634.733L174.062 637.532L176.7 628.291Z" fill="#E0E0E0"/>
<path d="M578.044 283.681L587.579 283.857C591.599 288.33 596.877 291.794 603.093 293.639C620.967 298.947 639.8 288.892 645.156 271.18C650.513 253.468 640.366 234.806 622.491 229.498C604.616 224.19 585.783 234.245 580.427 251.957C578.19 259.352 578.665 266.911 581.268 273.596L581.256 273.582L578.044 283.681Z" fill="white"/>
<path d="M578.046 283.681C578.034 283.69 578.093 283.477 578.217 283.05C578.357 282.583 578.546 281.948 578.791 281.13C579.327 279.368 580.103 276.824 581.104 273.534C581.13 273.449 581.22 273.402 581.305 273.426C581.34 273.436 581.371 273.461 581.391 273.487L581.402 273.502L581.119 273.653C579.541 269.67 578.204 264.026 579.019 257.361C579.403 254.041 580.416 250.529 582.069 247.052C583.716 243.578 586.084 240.149 589.215 237.173C592.336 234.195 596.216 231.673 600.638 229.998C605.053 228.318 610.011 227.496 615.074 227.822C625.195 228.346 635.668 234.039 641.619 243.441C644.633 248.209 646.492 253.604 646.832 259.005C647.235 264.398 646.313 269.731 644.365 274.465C642.39 279.198 639.366 283.293 635.814 286.493C632.257 289.702 628.171 292.018 624.026 293.442C615.68 296.312 607.342 295.561 601.049 293.215C594.678 290.866 590.25 287.112 587.465 283.955L587.578 284.006C584.499 283.91 582.11 283.835 580.443 283.783C579.678 283.753 579.079 283.732 578.635 283.714C578.232 283.701 578.034 283.69 578.046 283.681C578.058 283.674 578.278 283.669 578.698 283.668C579.153 283.668 579.764 283.668 580.548 283.666C582.19 283.675 584.548 283.687 587.582 283.703C587.626 283.703 587.667 283.724 587.695 283.753C590.505 286.838 594.921 290.495 601.217 292.759C607.442 295.021 615.637 295.701 623.814 292.847C627.877 291.431 631.873 289.144 635.347 285.989C638.817 282.843 641.766 278.827 643.689 274.19C645.586 269.55 646.477 264.334 646.079 259.062C645.741 253.781 643.919 248.508 640.973 243.846C635.154 234.655 624.929 229.08 615.023 228.544C605.06 227.858 595.754 231.793 589.657 237.63C586.571 240.538 584.229 243.89 582.589 247.296C580.944 250.704 579.921 254.156 579.516 257.422C578.662 263.981 579.917 269.566 581.419 273.535C581.451 273.618 581.412 273.711 581.328 273.744C581.258 273.772 581.179 273.744 581.136 273.688L581.126 273.673L581.412 273.628C580.343 276.849 579.516 279.337 578.945 281.063C578.666 281.89 578.448 282.53 578.289 283.002C578.138 283.444 578.046 283.681 578.046 283.681Z" fill="#E0E0E0"/>
<path d="M601.586 256.974H607.558C607.558 256.974 607.558 252.005 612.77 251.916C615.476 251.87 616.879 253.626 617.449 254.973C618.112 256.536 617.911 258.317 617.024 259.765C616.011 261.42 613.791 262.925 609.766 262.222V270.906H615.671V267.749C615.671 267.749 623.954 265.628 623.954 256.584C623.954 247.93 616.122 245.921 612.77 245.921C610.206 245.919 601.474 246.534 601.586 256.974Z" fill="#E0E0E0"/>
<path d="M615.743 273.16H609.75V278.707H615.743V273.16Z" fill="#E0E0E0"/>
<path d="M206.149 104.583H234.15C234.15 104.583 234.15 81.286 258.582 80.8676C271.272 80.6511 277.85 88.888 280.524 95.1971C283.627 102.524 282.688 110.875 278.53 117.669C273.78 125.428 263.373 132.481 244.503 129.186V169.904H272.191V155.101C272.191 155.101 311.022 145.154 311.022 102.747C311.022 62.1727 274.303 52.7491 258.586 52.7491C246.565 52.752 205.62 55.6327 206.149 104.583Z" fill="#E0E0E0"/>
<path d="M272.525 180.475H244.426V206.481H272.525V180.475Z" fill="#E0E0E0"/>
<path d="M181.249 201.236L159.224 195.407C159.224 195.407 154.285 213.732 134.979 208.974C124.952 206.503 121.524 198.656 120.759 193.135C119.87 186.726 122.38 180.353 127.09 175.874C132.471 170.759 142.152 167.379 156.298 173.899L164.929 141.872L143.152 136.11L140.015 147.753C140.015 147.753 107.363 147.494 98.373 180.848C89.772 212.763 116.655 227.819 129.018 231.09C138.471 233.59 171.287 239.848 181.249 201.236Z" fill="#EBEBEB"/>
<path d="M145.132 127.733L167.233 133.581L172.746 113.127L150.644 107.279L145.132 127.733Z" fill="#EBEBEB"/>
<path d="M605.788 446.292L624.094 448.248C624.094 448.248 625.75 433.017 641.753 434.45C650.064 435.193 653.779 441.038 655.077 445.351C656.586 450.358 655.377 455.752 652.175 459.903C648.519 464.644 641.212 468.527 629.11 465.055L626.215 491.675L644.316 493.608L645.368 483.932C645.368 483.932 671.461 480.14 674.478 452.418C677.364 425.893 654.029 417.167 643.754 416.07C635.896 415.23 608.923 414.254 605.788 446.292Z" fill="#EBEBEB"/>
<path d="M643.75 500.532L625.381 498.569L623.531 515.57L641.9 517.532L643.75 500.532Z" fill="#EBEBEB"/>
<path d="M72.152 555.089L91.3903 553.034C91.3903 553.034 89.6487 537.026 106.405 534.946C115.107 533.865 120.243 539.043 122.552 543.182C125.231 547.989 125.211 553.795 122.861 558.768C120.178 564.448 113.555 570.058 100.342 569.179L103.385 597.155L122.409 595.123L121.303 584.953C121.303 584.953 147.239 575.267 144.07 546.132C141.036 518.255 115.103 514.475 104.304 515.628C96.0478 516.511 68.1308 521.494 72.152 555.089Z" fill="#F5F5F5"/>
<path d="M123.433 602.335L104.127 604.398L106.072 622.265L125.378 620.202L123.433 602.335Z" fill="#F5F5F5"/>
<path d="M339.685 125.586L356.607 120.692C356.607 120.692 352.46 106.614 367.151 102.09C374.78 99.7411 380.223 103.569 382.961 106.915C386.141 110.799 387.06 116.01 385.757 120.843C384.268 126.362 379.235 132.444 367.244 133.752L374.492 158.358L391.225 153.517L388.591 144.572C388.591 144.572 410.286 131.772 402.738 106.146C395.515 81.6259 371.647 82.3493 362.149 85.0979C354.883 87.1999 330.652 96.0963 339.685 125.586Z" fill="#F5F5F5"/>
<path d="M393.29 159.841L376.31 164.753L380.939 180.469L397.92 175.557L393.29 159.841Z" fill="#F5F5F5"/>
<path d="M641.863 369.063L655.53 365.111C655.53 365.111 652.181 353.74 664.046 350.087C670.208 348.19 674.604 351.281 676.815 353.983C679.384 357.121 680.125 361.329 679.073 365.233C677.871 369.691 673.804 374.603 664.12 375.659L669.973 395.533L683.487 391.624L681.358 384.4C681.358 384.4 698.881 374.062 692.784 353.364C686.951 333.561 667.673 334.145 660.003 336.363C654.138 338.058 634.567 345.245 641.863 369.063Z" fill="#F5F5F5"/>
<path d="M685.141 396.721L671.426 400.688L675.165 413.38L688.88 409.413L685.141 396.721Z" fill="#F5F5F5"/>
<path d="M604.21 174.848C609.169 143.838 587.819 114.716 556.525 109.802C525.231 104.889 495.842 126.044 490.884 157.055C485.925 188.065 507.274 217.187 538.569 222.101C569.863 227.015 599.252 205.859 604.21 174.848Z" fill="white"/>
<path d="M604.903 165.958C604.903 165.958 604.861 165.646 604.817 165.039C604.776 164.404 604.717 163.507 604.641 162.341C604.604 161.745 604.565 161.083 604.521 160.354C604.443 159.626 604.286 158.837 604.157 157.98C604.019 157.121 603.871 156.199 603.713 155.214C603.594 154.22 603.22 153.211 602.962 152.115C601.952 147.725 599.878 142.536 596.609 137.038C593.312 131.563 588.556 125.842 582.079 120.985C581.266 120.385 580.443 119.778 579.61 119.164C578.743 118.6 577.829 118.084 576.926 117.534C576.004 117.015 575.13 116.383 574.142 115.939C573.164 115.474 572.176 115.005 571.179 114.531C570.68 114.296 570.177 114.06 569.672 113.824C569.148 113.635 568.62 113.444 568.089 113.253C567.029 112.871 565.958 112.484 564.877 112.093C563.786 111.736 562.644 111.507 561.516 111.201C560.375 110.946 559.252 110.548 558.063 110.427C555.704 110.096 553.321 109.614 550.85 109.601C549.62 109.558 548.382 109.439 547.133 109.46C545.884 109.524 544.626 109.589 543.358 109.653C542.726 109.696 542.085 109.692 541.452 109.775L539.55 110.065C538.281 110.275 536.991 110.421 535.714 110.683C533.197 111.361 530.59 111.868 528.111 112.894C525.553 113.704 523.149 114.958 520.676 116.132C519.472 116.778 518.317 117.532 517.125 118.234C516.542 118.604 515.919 118.92 515.363 119.337L513.684 120.582C511.367 122.158 509.341 124.129 507.218 126.028C505.3 128.13 503.286 130.188 501.632 132.575L500.322 134.312L499.174 136.171L498.027 138.042C497.629 138.658 497.264 139.294 496.966 139.968C496.324 141.29 495.679 142.618 495.031 143.951C494.518 145.34 494.002 146.735 493.484 148.134C491.625 153.802 490.626 159.823 490.544 165.951C490.626 172.08 491.623 178.103 493.481 183.774C493.999 185.175 494.514 186.569 495.028 187.958C495.676 189.291 496.321 190.619 496.963 191.943L497.45 192.931L498.025 193.869L499.171 195.74L500.319 197.599L501.629 199.338C503.283 201.725 505.297 203.785 507.215 205.887C509.338 207.786 511.364 209.759 513.681 211.335L515.36 212.581C515.916 213 516.539 213.315 517.122 213.685C518.314 214.385 519.469 215.139 520.673 215.787C523.146 216.963 525.552 218.215 528.11 219.027C530.589 220.054 533.197 220.559 535.714 221.239C536.991 221.501 538.281 221.649 539.55 221.857L541.452 222.147C542.085 222.23 542.724 222.226 543.358 222.269C544.626 222.335 545.884 222.399 547.133 222.462C548.382 222.481 549.622 222.362 550.85 222.32C553.321 222.307 555.704 221.825 558.065 221.494C559.255 221.373 560.376 220.975 561.519 220.719C562.647 220.416 563.789 220.186 564.88 219.827C565.96 219.437 567.031 219.05 568.092 218.668C568.623 218.476 569.15 218.286 569.675 218.097C570.18 217.86 570.682 217.624 571.182 217.39C572.181 216.916 573.169 216.447 574.147 215.982C575.135 215.537 576.008 214.907 576.931 214.387C577.834 213.835 578.748 213.321 579.615 212.757C580.447 212.142 581.27 211.535 582.084 210.935C588.56 206.079 593.316 200.358 596.612 194.881C599.881 189.382 601.955 184.195 602.964 179.805C603.222 178.71 603.594 177.7 603.713 176.707C603.871 175.722 604.019 174.799 604.157 173.941C604.286 173.084 604.443 172.295 604.521 171.567C604.565 170.838 604.604 170.175 604.641 169.58C604.717 168.413 604.774 167.517 604.817 166.882C604.861 166.271 604.903 165.958 604.903 165.958C604.903 165.958 604.914 166.271 604.896 166.879C604.873 167.515 604.839 168.415 604.796 169.586C604.771 170.183 604.744 170.848 604.713 171.58C604.647 172.311 604.502 173.104 604.384 173.967C604.257 174.83 604.12 175.758 603.974 176.75C603.865 177.751 603.503 178.768 603.256 179.872C602.284 184.296 600.24 189.533 596.981 195.094C593.696 200.631 588.93 206.426 582.413 211.355C581.594 211.964 580.766 212.581 579.929 213.204C579.056 213.777 578.136 214.301 577.225 214.862C576.297 215.391 575.416 216.03 574.419 216.483C573.433 216.957 572.437 217.433 571.43 217.917C570.926 218.155 570.419 218.396 569.91 218.638C569.381 218.831 568.847 219.025 568.312 219.22C567.242 219.609 566.161 220.005 565.069 220.401C563.968 220.766 562.814 221.003 561.674 221.313C560.522 221.576 559.387 221.98 558.185 222.107C555.801 222.449 553.391 222.942 550.893 222.962C549.65 223.009 548.396 223.131 547.133 223.115C545.869 223.052 544.596 222.991 543.314 222.929C542.673 222.887 542.027 222.891 541.386 222.808L539.461 222.519C538.175 222.311 536.869 222.163 535.576 221.902C533.027 221.222 530.387 220.712 527.874 219.678C525.283 218.86 522.844 217.597 520.339 216.409C519.119 215.755 517.948 214.996 516.74 214.287C516.149 213.912 515.517 213.594 514.954 213.171L513.252 211.912C510.903 210.316 508.847 208.325 506.696 206.401C504.749 204.275 502.708 202.19 501.03 199.774L499.7 198.014L498.536 196.131L497.374 194.236L496.79 193.286L496.296 192.285C495.644 190.946 494.99 189.599 494.333 188.248C493.813 186.841 493.289 185.427 492.763 184.009C490.878 178.264 489.865 172.158 489.783 165.948C489.865 159.741 490.881 153.638 492.766 147.894C493.291 146.476 493.814 145.062 494.336 143.656C494.993 142.307 495.647 140.962 496.299 139.621C496.603 138.938 496.972 138.294 497.377 137.67L498.539 135.775L499.703 133.894L501.031 132.133C502.708 129.718 504.751 127.634 506.696 125.508C508.847 123.586 510.903 121.593 513.25 119.999L514.952 118.741C515.515 118.32 516.147 118 516.738 117.625C517.946 116.916 519.116 116.157 520.336 115.503C522.841 114.315 525.279 113.054 527.869 112.236C530.381 111.203 533.021 110.693 535.57 110.012C536.862 109.749 538.17 109.602 539.454 109.394L541.379 109.105C542.019 109.022 542.667 109.028 543.306 108.985C544.589 108.922 545.862 108.86 547.125 108.799C548.389 108.783 549.642 108.905 550.886 108.95C553.384 108.97 555.794 109.463 558.177 109.805C559.38 109.932 560.514 110.336 561.667 110.599C562.807 110.909 563.961 111.146 565.062 111.511C566.153 111.909 567.233 112.303 568.305 112.692C568.84 112.887 569.372 113.081 569.903 113.274C570.413 113.516 570.918 113.755 571.423 113.995C572.428 114.477 573.425 114.955 574.412 115.429C575.409 115.881 576.29 116.521 577.218 117.05C578.128 117.611 579.049 118.135 579.921 118.708C580.76 119.331 581.588 119.948 582.406 120.557C588.922 125.486 593.688 131.281 596.975 136.818C600.236 142.379 602.279 147.616 603.251 152.041C603.499 153.145 603.861 154.162 603.971 155.163C604.118 156.155 604.254 157.084 604.381 157.947C604.499 158.809 604.645 159.603 604.71 160.333C604.741 161.065 604.768 161.731 604.793 162.329C604.836 163.5 604.87 164.399 604.893 165.036C604.914 165.647 604.903 165.958 604.903 165.958Z" fill="#263238"/>
<path d="M527.125 156.215H538.023C538.023 156.215 538.023 147.146 547.533 146.984C552.472 146.9 555.033 150.106 556.074 152.563C557.282 155.414 556.917 158.666 555.297 161.31C553.448 164.33 549.397 167.075 542.051 165.793V181.642H552.829V175.88C552.829 175.88 567.945 172.009 567.945 155.502C567.945 139.708 553.652 136.04 547.534 136.04C542.856 136.04 526.918 137.16 527.125 156.215Z" fill="#FF725E"/>
<path d="M552.959 185.756H542.021V195.878H552.959V185.756Z" fill="#FF725E"/>
<path d="M520.516 241.81C525.474 241.81 529.494 237.827 529.494 232.913C529.494 228 525.474 224.017 520.516 224.017C515.558 224.017 511.538 228 511.538 232.913C511.538 237.827 515.558 241.81 520.516 241.81Z" fill="white"/>
<path d="M529.493 232.913C529.413 232.918 529.441 232.12 529.068 230.776C528.702 229.457 527.79 227.532 525.784 226.054C523.846 224.572 520.659 223.745 517.578 224.884C516.06 225.43 514.614 226.456 513.587 227.872C512.53 229.27 511.938 231.063 511.921 232.91C511.938 234.76 512.53 236.552 513.587 237.95C514.614 239.368 516.06 240.393 517.578 240.939C520.659 242.08 523.846 241.252 525.784 239.77C527.79 238.291 528.702 236.366 529.068 235.047C529.441 233.705 529.413 232.909 529.493 232.913C529.52 232.913 529.536 233.108 529.542 233.484C529.555 233.859 529.511 234.42 529.357 235.12C529.067 236.503 528.198 238.569 526.111 240.196C524.097 241.826 520.687 242.79 517.337 241.595C515.688 241.022 514.109 239.923 512.983 238.389C511.828 236.876 511.173 234.921 511.155 232.91C511.173 230.9 511.828 228.946 512.983 227.434C514.108 225.901 515.687 224.801 517.336 224.229C520.686 223.033 524.096 223.998 526.11 225.628C528.196 227.255 529.065 229.321 529.356 230.704C529.51 231.405 529.554 231.965 529.54 232.339C529.536 232.717 529.52 232.913 529.493 232.913Z" fill="#263238"/>
<path d="M532.092 430.992C547.013 481.157 550.505 534.25 541.526 585.842C540.417 592.213 543.241 598.752 549.973 600.584C555.794 602.169 563.734 598.627 564.85 592.213C574.578 536.319 571.614 479.078 555.416 424.621C551.025 409.857 527.675 416.141 532.092 430.992Z" fill="#263238"/>
<path d="M595.568 369.996C588.694 346.606 569.736 327.563 547.176 321.386C551.714 304.655 544.527 285.336 535.597 270.681C526.668 256.026 510.549 245.488 494.178 242.8C477.177 240.008 466.623 241.528 450.15 246.752C440.314 228.089 421.415 217.968 401.226 215.571C381.038 213.174 359.299 224.431 351.117 243.955C348.19 223.43 324.848 211.261 305.579 215.892C286.308 220.523 271.675 237.466 262.653 255.934L521.516 531.878C544.461 540.943 572.765 531.509 586.529 510.211C600.293 488.913 598.181 457.816 581.678 438.783C596.999 420.332 602.442 393.386 595.568 369.996Z" fill="#FF725E"/>
<path d="M381.122 564.336L362.274 562.322L348.035 693.179L366.883 695.193L381.122 564.336Z" fill="#263238"/>
<path d="M411.02 695.243L429.869 693.229L415.63 562.372L396.781 564.386L411.02 695.243Z" fill="#263238"/>
<path d="M172.537 290.862C180.26 269.446 194.401 253.203 216.011 244.343C237.805 235.409 262.404 235.272 285.629 239.339C295.149 241.005 304.93 243.54 312.269 249.775C319.608 256.011 323.727 266.883 319.499 275.498C339.633 264.234 365.749 264.312 385.814 275.698C405.877 287.083 419.165 309.363 419.551 332.271C440.529 330.609 462.546 335.204 479.191 347.966C495.836 360.728 506.13 382.334 502.361 402.852C516.077 401.664 529.231 410.415 536.535 421.981C543.837 433.548 546.222 447.486 547.194 461.095C547.794 469.496 547.88 478.148 545.048 486.09C543.67 489.956 541.617 493.599 540.72 497.6C539.635 502.442 540.31 507.474 540.461 512.432C541.155 535.369 529.633 558.329 510.757 571.623C491.88 584.916 466.209 588.147 444.578 579.952C420.552 604.532 377.496 607.596 350.171 586.67C332.396 592.578 313.565 596.836 294.969 594.466C285.482 593.258 276.101 590.134 267.997 585.06C260.57 580.41 256.312 571.424 249.319 567.167C242.176 562.819 234.094 566.649 226.036 566.541C216.631 566.415 207.239 564.125 198.902 559.798C183.001 551.545 171.172 536.159 166.853 518.895C165.978 515.399 165.33 511.69 163.108 508.84C161.074 506.232 157.991 504.694 155.118 503.033C137.209 492.681 124.3 474.216 120.812 453.962C117.325 433.71 123.323 412.048 136.755 396.396C136.755 396.396 123.196 361.935 135.953 331.072C148.715 300.211 172.537 290.862 172.537 290.862Z" fill="#FF725E"/>
<g opacity="0.3">
<path d="M586.382 485.65C575.58 502.365 555.823 511.767 536.73 510.661C532.002 524.774 522.857 537.465 510.613 546.087C491.735 559.379 466.066 562.611 444.435 554.418C420.408 578.998 377.352 582.062 350.027 561.136C332.252 567.044 313.421 571.302 294.825 568.932C285.339 567.724 275.958 564.6 267.854 559.526C260.427 554.876 256.168 545.889 249.175 541.633C242.033 537.285 233.951 541.114 225.892 541.007C216.488 540.881 207.095 538.591 198.758 534.263C182.858 526.011 171.029 510.625 166.71 493.361C165.835 489.864 165.187 486.156 162.964 483.306C160.931 480.698 157.848 479.16 154.974 477.499C137.403 467.342 124.666 449.369 120.899 429.566C119.418 437.592 119.283 445.856 120.669 453.903C124.156 474.155 137.066 492.62 154.974 502.974C157.846 504.634 160.931 506.173 162.964 508.78C165.187 511.63 165.836 515.341 166.71 518.836C171.029 536.1 182.859 551.485 198.758 559.738C207.095 564.066 216.488 566.355 225.892 566.482C233.951 566.589 242.033 562.76 249.175 567.108C256.168 571.365 260.427 580.352 267.854 585.001C275.958 590.075 285.339 593.197 294.825 594.407C313.421 596.776 332.251 592.518 350.027 586.61C377.351 607.536 420.407 604.473 444.435 579.893C466.066 588.086 491.737 584.855 510.613 571.562C522.857 562.94 532 550.248 536.73 536.136C555.824 537.243 575.58 527.841 586.382 511.125C594.772 498.142 597.252 481.522 594.181 466.21C592.771 473.129 590.184 479.764 586.382 485.65Z" fill="black"/>
</g>
<path d="M273.595 443.417C273.572 443.43 273.374 443.163 273.016 442.641C272.641 442.133 272.184 441.321 271.449 440.375C270.067 438.426 267.865 435.732 264.742 432.813C261.628 429.888 257.488 426.835 252.418 424.314C247.361 421.788 241.33 419.894 234.823 419.253C228.306 418.689 222.024 419.445 216.583 420.999C211.128 422.546 206.489 424.788 202.884 427.092C199.269 429.388 196.603 431.631 194.88 433.293C193.981 434.088 193.38 434.801 192.917 435.233C192.468 435.679 192.224 435.905 192.203 435.888C192.183 435.87 192.389 435.61 192.803 435.131C193.231 434.665 193.8 433.917 194.672 433.084C196.34 431.348 198.976 429.021 202.591 426.643C206.197 424.258 210.87 421.936 216.388 420.329C221.892 418.715 228.27 417.925 234.894 418.499C241.509 419.15 247.627 421.096 252.734 423.691C257.858 426.281 262.014 429.419 265.113 432.425C268.222 435.426 270.378 438.195 271.693 440.208C272.393 441.186 272.814 442.027 273.147 442.563C273.463 443.111 273.619 443.404 273.595 443.417Z" fill="#263238"/>
<path d="M293.991 529.458C293.977 529.458 293.98 529.284 293.998 528.944C294.023 528.565 294.055 528.066 294.098 527.436C294.152 526.757 294.218 525.939 294.294 524.982C294.451 524.015 294.63 522.906 294.832 521.666C295.294 519.18 296.069 516.176 297.263 512.779C298.569 509.435 300.164 505.629 302.614 501.799C307.352 494.118 314.833 485.749 325.535 480.007C330.843 477.124 336.94 475.025 343.452 474.029C349.961 473.023 356.869 473.093 363.744 474.308C377.517 476.787 389.615 483.768 397.707 492.681C405.896 501.568 410.146 512.087 411.13 521.077C412.159 530.148 410.129 537.488 408.147 542.101C406.103 546.754 404.251 548.917 404.251 548.917C404.241 548.91 404.326 548.756 404.502 548.465C404.701 548.143 404.964 547.717 405.295 547.178C405.955 546.027 406.92 544.318 407.872 541.989C409.756 537.377 411.68 530.091 410.595 521.14C409.555 512.267 405.305 501.902 397.188 493.149C389.174 484.376 377.218 477.502 363.611 475.051C356.819 473.851 349.998 473.777 343.571 474.759C337.141 475.733 331.126 477.788 325.873 480.618C315.284 486.256 307.834 494.499 303.078 502.077C300.62 505.857 299.004 509.617 297.669 512.925C296.446 516.282 295.634 519.257 295.13 521.721C294.904 522.953 294.702 524.051 294.526 525.011C294.42 525.961 294.332 526.775 294.257 527.447C294.184 528.075 294.127 528.57 294.083 528.947C294.033 529.287 294.004 529.459 293.991 529.458Z" fill="#263238"/>
<path d="M484.094 546.068C484.106 546.091 483.888 546.212 483.46 546.421C483.026 546.613 482.41 546.964 481.555 547.265C479.878 547.946 477.341 548.705 474.112 549.122C470.89 549.547 466.958 549.512 462.738 548.612C458.526 547.723 454.05 545.875 450.047 542.914C446.083 539.898 443.073 536.129 441.067 532.353C439.047 528.572 437.948 524.831 437.487 521.642C437.017 518.451 437.064 515.824 437.272 514.04C437.331 513.144 437.506 512.461 437.574 511.995C437.66 511.53 437.719 511.289 437.744 511.295C437.961 511.298 436.954 515.264 438.02 521.557C438.54 524.683 439.675 528.338 441.686 532.023C443.684 535.705 446.643 539.371 450.507 542.311C454.411 545.198 458.772 547.024 462.89 547.932C467.016 548.852 470.873 548.942 474.051 548.59C480.453 547.899 484.031 545.862 484.094 546.068Z" fill="#263238"/>
<path d="M261.454 265.037C261.403 265.028 261.482 264.364 261.673 263.166C261.847 261.966 262.22 260.247 262.787 258.151C263.342 256.052 264.18 253.597 265.27 250.936C266.396 248.289 267.796 245.444 269.508 242.594C271.246 239.757 273.125 237.196 274.956 234.969C276.816 232.765 278.612 230.882 280.223 229.411C281.824 227.931 283.182 226.799 284.17 226.083C285.148 225.355 285.703 224.973 285.736 225.015C285.824 225.125 283.683 226.763 280.6 229.794C279.051 231.302 277.315 233.205 275.503 235.408C273.722 237.635 271.882 240.177 270.164 242.982C268.471 245.8 267.068 248.601 265.918 251.206C264.804 253.824 263.923 256.235 263.306 258.299C262.049 262.422 261.595 265.063 261.454 265.037Z" fill="#263238"/>
<path d="M204.183 287.292C204.145 287.442 201.549 286.692 197.248 286.243C195.1 286.002 192.521 285.927 189.671 286.042C186.823 286.207 183.703 286.592 180.493 287.324C177.289 288.093 174.325 289.131 171.703 290.247C169.1 291.409 166.83 292.619 165.018 293.787C161.373 296.097 159.39 297.917 159.288 297.8C159.253 297.76 159.733 297.294 160.637 296.481C161.083 296.067 161.644 295.577 162.342 295.066C163.034 294.547 163.795 293.917 164.723 293.341C166.519 292.104 168.793 290.827 171.417 289.612C174.061 288.446 177.067 287.369 180.32 286.589C183.58 285.845 186.752 285.475 189.643 285.347C192.537 285.27 195.148 285.404 197.314 285.715C198.403 285.818 199.369 286.044 200.221 286.201C201.075 286.349 201.798 286.538 202.384 286.711C203.557 287.037 204.198 287.241 204.183 287.292Z" fill="#263238"/>
<path d="M204.182 407.795C204.198 407.816 204 407.996 203.607 408.32C203.206 408.632 202.646 409.141 201.842 409.683C200.28 410.827 197.88 412.316 194.709 413.753C191.544 415.194 187.561 416.487 182.992 417.174C178.433 417.869 173.285 417.877 168.042 416.873C162.809 415.814 158.054 413.853 154.109 411.484C150.154 409.117 146.971 406.413 144.604 403.882C142.229 401.354 140.585 399.068 139.584 397.417C139.051 396.613 138.731 395.93 138.48 395.49C138.243 395.041 138.128 394.801 138.152 394.788C138.211 394.755 138.757 395.671 139.833 397.258C140.905 398.847 142.598 401.061 144.994 403.511C147.383 405.965 150.556 408.589 154.47 410.885C158.374 413.186 163.053 415.091 168.192 416.131C173.339 417.116 178.397 417.129 182.891 416.484C187.393 415.845 191.337 414.625 194.492 413.263C197.651 411.908 200.071 410.503 201.675 409.44C203.282 408.382 204.14 407.742 204.182 407.795Z" fill="#263238"/>
<path d="M168.222 475.866C168.361 475.924 167.211 478.452 166.007 482.736C165.391 484.873 164.843 487.468 164.413 490.372C164.031 493.281 163.793 496.505 163.852 499.893C163.944 503.28 164.325 506.491 164.837 509.382C165.396 512.264 166.06 514.831 166.769 516.94C168.163 521.167 169.424 523.643 169.288 523.707C169.241 523.73 168.904 523.124 168.335 522.006C168.042 521.449 167.705 520.759 167.372 519.931C167.032 519.107 166.605 518.182 166.259 517.113C165.476 515.006 164.749 512.424 164.147 509.512C163.589 506.594 163.182 503.341 163.088 499.91C163.028 496.479 163.29 493.213 163.717 490.273C164.191 487.338 164.802 484.728 165.489 482.588C165.787 481.504 166.174 480.561 166.476 479.723C166.771 478.882 167.077 478.178 167.345 477.608C167.866 476.465 168.175 475.844 168.222 475.866Z" fill="#263238"/>
<path d="M263.283 580.5C263.261 580.515 263.046 580.253 262.656 579.739C262.272 579.22 261.682 578.471 260.99 577.458C259.576 575.455 257.621 572.484 255.509 568.637C253.392 564.796 251.193 560.024 249.481 554.472C248.654 551.69 247.94 548.721 247.444 545.597C246.98 542.471 246.736 539.2 246.75 535.85C246.826 522.405 250.582 510.56 254.421 502.709C256.327 498.755 258.17 495.709 259.543 493.676C260.206 492.645 260.8 491.895 261.174 491.369C261.558 490.851 261.77 490.587 261.792 490.601C261.814 490.616 261.644 490.91 261.301 491.455C260.968 492.007 260.417 492.782 259.795 493.835C258.502 495.908 256.743 498.979 254.912 502.934C251.222 510.792 247.59 522.543 247.515 535.854C247.503 539.166 247.738 542.396 248.186 545.487C248.666 548.574 249.356 551.513 250.157 554.273C251.816 559.779 253.945 564.536 255.988 568.387C258.027 572.244 259.904 575.247 261.239 577.295C261.876 578.266 262.387 579.049 262.783 579.653C263.131 580.192 263.304 580.484 263.283 580.5Z" fill="#263238"/>
<path d="M248.528 519.038C248.544 519.07 247.995 519.389 246.886 519.636C245.783 519.89 244.099 519.953 242.115 519.524C240.124 519.116 237.89 518.192 235.545 516.959C233.199 515.717 230.764 514.072 228.473 512.044C223.855 507.991 220.855 503.208 219.231 499.586C218.429 497.76 217.916 496.232 217.621 495.161C217.346 494.083 217.22 493.485 217.271 493.472C217.415 493.429 218.001 495.821 219.721 499.359C221.448 502.874 224.457 507.508 228.981 511.479C231.227 513.468 233.599 515.095 235.882 516.347C238.169 517.592 240.331 518.545 242.24 519.004C246.1 520.015 248.522 518.89 248.528 519.038Z" fill="#263238"/>
<path d="M354.681 589.027C354.653 589.072 354.176 588.827 353.335 588.342C352.489 587.867 351.309 587.104 349.896 586.099C347.072 584.09 343.391 580.952 340.018 576.861C336.655 572.76 334.297 568.553 332.883 565.406C332.175 563.832 331.659 562.533 331.361 561.615C331.053 560.701 330.906 560.188 330.955 560.171C331.078 560.126 331.84 562.113 333.371 565.177C334.898 568.238 337.295 572.339 340.61 576.383C343.935 580.416 347.505 583.571 350.221 585.672C352.94 587.775 354.751 588.917 354.681 589.027Z" fill="#263238"/>
<path d="M453.072 543.744C453.125 543.744 453.176 544.29 453.224 545.281C453.276 546.27 453.306 547.704 453.302 549.478C453.274 553.015 453.106 557.956 451.886 563.274C450.669 568.6 448.432 573.086 446.513 576.081C445.531 577.572 444.697 578.748 444.052 579.509C443.424 580.284 443.058 580.695 443.017 580.663C442.902 580.579 444.248 578.835 446.053 575.804C447.834 572.767 449.946 568.34 451.144 563.104C452.345 557.876 452.6 552.987 452.765 549.465C452.906 545.935 452.956 543.744 453.072 543.744Z" fill="#263238"/>
<path d="M515.12 468.636C515.133 468.613 515.369 468.725 515.809 468.959C516.244 469.2 516.904 469.533 517.707 470.034C519.298 471.055 521.56 472.647 523.938 475.075C526.308 477.495 528.77 480.756 530.793 484.751C531.804 486.747 532.697 488.922 533.502 491.214C534.269 493.52 534.93 495.947 535.471 498.462C537.564 508.562 537.459 517.932 537.265 524.62C537.151 527.975 536.982 530.684 536.859 532.555C536.795 533.418 536.741 534.13 536.697 534.708C536.651 535.2 536.616 535.458 536.59 535.458C536.563 535.456 536.548 535.196 536.543 534.702C536.547 534.123 536.554 533.408 536.562 532.542C536.603 530.556 536.658 527.872 536.724 524.607C536.78 517.929 536.795 508.609 534.722 498.616C534.185 496.127 533.537 493.727 532.791 491.448C532.005 489.183 531.14 487.035 530.161 485.06C528.204 481.109 525.831 477.875 523.545 475.442C521.254 473.004 519.069 471.367 517.542 470.279C515.976 469.243 515.089 468.69 515.12 468.636Z" fill="#263238"/>
<path d="M497.984 484.742C497.953 484.7 498.491 484.245 499.488 483.462C500.492 482.69 501.914 481.53 503.629 480.059C507.066 477.121 511.575 472.775 515.895 467.413C520.205 462.039 523.472 456.712 525.591 452.735C526.656 450.748 527.477 449.116 528.012 447.974C528.559 446.837 528.885 446.215 528.934 446.235C528.982 446.256 528.749 446.914 528.283 448.092C527.829 449.275 527.079 450.949 526.071 452.979C524.062 457.041 520.839 462.464 516.492 467.884C512.134 473.292 507.523 477.618 503.977 480.467C502.206 481.895 500.725 482.995 499.664 483.698C498.61 484.412 498.014 484.784 497.984 484.742Z" fill="#263238"/>
<path d="M489.162 286.336C489.186 286.326 489.296 286.514 489.485 286.884C489.664 287.257 489.958 287.798 490.254 288.529C490.888 289.973 491.674 292.124 492.357 294.864C493.745 300.304 494.414 308.33 492.212 316.728C490.008 325.129 485.48 331.816 481.595 335.9C479.652 337.964 477.909 339.463 476.646 340.419C476.028 340.915 475.506 341.244 475.166 341.484C474.82 341.716 474.631 341.828 474.617 341.806C474.58 341.757 475.263 341.212 476.458 340.191C477.654 339.173 479.327 337.626 481.195 335.541C484.934 331.412 489.309 324.794 491.473 316.538C493.637 308.287 493.069 300.396 491.832 294.984C491.225 292.262 490.524 290.103 489.979 288.636C489.435 287.167 489.105 286.361 489.162 286.336Z" fill="#263238"/>
<path d="M515.12 300.664C515.117 300.797 513.659 300.769 511.361 301.103C509.065 301.43 505.934 302.236 502.783 303.831C499.639 305.44 497.152 307.492 495.547 309.15C493.933 310.806 493.108 311.994 492.998 311.92C492.932 311.881 493.602 310.576 495.15 308.788C496.686 307.001 499.196 304.813 502.436 303.157C505.68 301.514 508.936 300.768 511.296 300.571C513.664 300.367 515.127 300.587 515.12 300.664Z" fill="#263238"/>
<path d="M562.424 458.758C562.399 458.749 562.497 458.395 562.705 457.728C562.896 457.057 563.274 456.098 563.61 454.819C564.366 452.287 565.265 448.557 565.842 443.876C566.421 439.199 566.591 433.548 565.811 427.362C565.07 421.184 563.331 414.474 560.308 407.944C558.781 404.687 557.014 401.639 555.104 398.829C553.157 396.043 551.062 393.513 548.933 391.223C544.597 386.714 540.11 383.217 536.046 380.769C531.988 378.309 528.465 376.712 525.971 375.788C524.746 375.264 523.742 374.999 523.088 374.741C522.427 374.504 522.082 374.367 522.089 374.343C522.097 374.318 522.456 374.405 523.133 374.595C523.803 374.808 524.827 375.028 526.074 375.512C528.613 376.356 532.196 377.889 536.326 380.313C540.463 382.723 545.032 386.213 549.445 390.745C551.612 393.048 553.742 395.599 555.72 398.411C557.662 401.247 559.455 404.331 561 407.628C564.061 414.238 565.798 421.034 566.509 427.281C567.258 433.534 567.03 439.239 566.377 443.945C565.726 448.656 564.74 452.391 563.892 454.908C563.51 456.181 563.086 457.126 562.849 457.783C562.595 458.431 562.448 458.768 562.424 458.758Z" fill="#263238"/>
<path d="M562.333 365.767C562.417 365.786 562.196 367.197 561.438 369.374C560.681 371.546 559.316 374.463 557.236 377.324C555.154 380.184 552.788 382.391 550.929 383.766C549.07 385.151 547.774 385.778 547.732 385.706C547.568 385.507 552.564 382.55 556.617 376.881C560.741 371.273 562.089 365.673 562.333 365.767Z" fill="#263238"/>
<path d="M408.29 246.752C408.339 246.736 408.548 247.272 408.88 248.261C409.055 248.754 409.248 249.362 409.414 250.084C409.587 250.805 409.822 251.618 409.959 252.542C410.321 254.376 410.555 256.594 410.621 259.065C410.645 261.536 410.478 264.258 410 267.075C409.492 269.887 408.722 272.507 407.859 274.825C406.954 277.129 405.979 279.141 405.015 280.745C404.57 281.569 404.072 282.256 403.664 282.876C403.263 283.501 402.874 284.009 402.541 284.415C401.891 285.234 401.512 285.67 401.471 285.638C401.353 285.551 402.779 283.732 404.543 280.485C405.435 278.868 406.344 276.863 407.197 274.583C408.011 272.287 408.747 269.709 409.247 266.944C409.716 264.175 409.902 261.502 409.917 259.071C409.889 256.639 409.716 254.448 409.426 252.628C408.873 248.985 408.149 246.794 408.29 246.752Z" fill="#263238"/>
<g opacity="0.3">
<path d="M410.191 505.956C411.5 502.712 411.903 498.042 408.672 496.647C406.463 495.694 403.979 497.025 401.968 498.343C395.604 502.51 393.731 505.272 387.437 509.321C382.951 512.206 376.316 515.345 371.45 513.143C366.048 510.698 365.973 503.184 362.82 498.197C361.845 496.654 360.272 495.219 358.44 495.347C356.465 495.484 354.071 497.212 353.737 499.147C353.404 501.081 353.989 503.489 354.066 505.449C354.307 511.536 354.313 514.709 353.767 519.449C353.511 520.639 353.331 521.924 353.206 523.265C347.964 522.905 342.598 522.837 337.874 522.553C336.699 522.482 335.373 522.501 334.541 523.441C333.921 524.141 333.737 525.18 333.603 526.157C333.371 527.845 333.213 529.545 333.101 531.248C308.645 531.373 285.557 530.001 263.938 518.234C240.668 505.568 229.533 485.097 229.533 456.51C229.533 456.51 229.651 447.938 217.258 447.767C203.579 447.578 203.788 462.639 203.788 462.639C201.253 493.602 221.912 523.142 249.004 538.771C275.449 554.029 306.949 558.082 337.596 558.192C338.242 558.99 338.99 559.665 339.883 560.139C341.786 561.149 343.985 561.093 346.08 560.894C351.646 560.366 357.138 558.925 362.357 556.68C363.672 557.791 365.591 559.041 369.307 559.668C376.141 560.822 381.347 561.33 388.21 560.347C392.462 559.738 399.216 557.206 400.486 553.138C400.88 551.876 400.864 550.48 401.499 549.318C401.514 549.29 401.536 549.268 401.552 549.241C402.034 548.722 402.509 548.198 402.941 547.639C403.216 547.387 403.491 547.137 403.757 546.88C406.674 544.055 407.379 535.192 404.268 532.517C404.726 531.909 405.164 531.287 405.558 530.638L404.592 531.633C408.074 526.452 407.527 521.933 402.878 517.399C402.937 517.306 403.007 517.222 403.065 517.129L402.84 517.36C402.836 517.355 402.833 517.351 402.829 517.347C406.429 512.246 407.965 511.469 410.191 505.956Z" fill="black"/>
</g>
<path d="M229.535 449.434C229.535 478.021 240.669 498.492 263.94 511.158C287.21 523.824 312.18 524.446 338.728 524.122C339.099 533.122 339.471 542.121 339.842 551.121C308.493 551.2 276.098 547.326 249.006 531.696C221.914 516.067 201.255 486.526 203.79 455.565C203.79 455.565 203.579 440.503 217.26 440.692C229.655 440.86 229.535 449.434 229.535 449.434Z" fill="#263238"/>
<path d="M408.671 489.567C406.462 488.614 403.979 489.944 401.967 491.262C395.603 495.43 393.73 498.191 387.436 502.24C382.95 505.127 376.315 508.264 371.45 506.062C366.047 503.617 365.973 496.104 362.819 491.117C361.844 489.574 360.271 488.139 358.44 488.266C356.466 488.403 354.072 490.132 353.737 492.067C353.403 494 353.99 496.409 354.066 498.369C354.306 504.455 354.312 507.628 353.767 512.37C353.221 517.111 352.192 525.849 354.893 529.801C356.25 536.291 357.902 540.639 360.782 546.622C361.551 548.221 359.137 546.989 360.572 548.047C362.117 549.187 363.59 551.626 369.308 552.591C376.142 553.744 381.348 554.253 388.21 553.269C392.463 552.66 399.217 550.128 400.487 546.061C400.881 544.798 400.865 543.402 401.5 542.24C402.032 541.265 402.958 540.577 403.757 539.803C406.73 536.923 407.415 527.754 404.095 525.276C408.142 519.77 407.743 515.03 402.828 510.268C406.43 505.164 407.966 504.389 410.192 498.874C411.499 495.633 411.904 490.961 408.671 489.567Z" fill="white"/>
<path d="M366.67 520.284C365.62 521.185 364.886 517.796 363.59 517.515C355.645 515.797 345.844 515.952 337.873 515.474C336.697 515.403 335.372 515.422 334.539 516.362C333.919 517.062 333.736 518.101 333.601 519.08C332.511 527.013 332.763 535.179 334.339 543.007C335.142 546.998 336.601 551.322 339.882 553.064C341.784 554.074 343.983 554.019 346.078 553.82C357.781 552.707 369.163 547.606 378.355 539.357L366.67 520.284Z" fill="white"/>
<path d="M360.611 548.727C360.568 548.757 360.239 548.339 359.677 547.553C359.381 547.168 359.089 546.656 358.743 546.065C358.383 545.481 358.022 544.79 357.654 544.01C356.121 540.92 354.596 536.376 353.644 531.214C352.721 526.045 352.539 521.268 352.821 517.839C352.875 516.981 352.953 516.208 353.064 515.532C353.159 514.855 353.24 514.274 353.36 513.806C353.573 512.868 353.715 512.358 353.766 512.368C353.9 512.394 353.467 514.469 353.359 517.867C353.219 521.26 353.483 525.97 354.395 531.079C355.336 536.181 356.757 540.683 358.145 543.786C359.503 546.909 360.728 548.648 360.611 548.727Z" fill="#263238"/>
<path d="M398.379 530.957C398.257 530.77 400.155 529.433 402.115 527.399C404.092 525.379 405.366 523.448 405.559 523.561C405.735 523.649 404.718 525.823 402.667 527.924C400.626 530.036 398.472 531.129 398.379 530.957Z" fill="#263238"/>
<path d="M397.236 545.812C397.114 545.625 399.012 544.288 400.972 542.255C402.949 540.234 404.221 538.303 404.416 538.417C404.592 538.504 403.574 540.678 401.524 542.779C399.483 544.891 397.329 545.984 397.236 545.812Z" fill="#263238"/>
<path d="M395.885 517.448C395.764 517.261 397.662 515.924 399.622 513.891C401.598 511.87 402.871 509.939 403.066 510.053C403.242 510.14 402.226 512.314 400.173 514.415C398.133 516.527 395.979 517.62 395.885 517.448Z" fill="#263238"/>
<path d="M334.648 374.556C334.198 377.912 322.347 378.938 309.166 383.493C295.888 387.786 285.836 394.083 283.426 391.685C282.329 390.523 283.587 387.185 287.337 383.217C291.046 379.263 297.398 374.89 305.331 372.229C313.263 369.587 320.989 369.249 326.362 370.168C331.77 371.073 334.812 372.974 334.648 374.556Z" fill="#263238"/>
<path d="M461.369 320.423C458.805 323.029 449.041 320.064 437.232 319.688C425.44 318.974 415.385 321.02 413.14 318.188C412.161 316.82 413.791 314.189 418.214 311.763C422.572 309.346 429.82 307.446 437.932 307.818C446.043 308.198 453.023 310.754 457.075 313.562C461.19 316.381 462.503 319.15 461.369 320.423Z" fill="#263238"/>
<path d="M464.132 370.991C483.372 378.441 492.52 400.841 484.563 421.024C476.605 441.205 454.556 451.526 435.315 444.078C416.074 436.629 406.928 414.228 414.885 394.047C422.842 373.865 444.891 363.542 464.132 370.991Z" fill="white"/>
<path d="M464.824 369.239C484.064 376.689 494.099 396.839 487.236 414.245C480.374 431.65 459.212 439.722 439.971 432.272C420.73 424.823 410.696 404.672 417.559 387.269C424.421 369.861 445.583 361.79 464.824 369.239Z" fill="#263238"/>
<path d="M348.013 396.82C363.657 410.187 364.765 434.328 350.486 450.739C336.209 467.149 311.95 469.615 296.306 456.249C280.661 442.881 279.554 418.742 293.831 402.333C308.109 385.922 332.367 383.454 348.013 396.82Z" fill="white"/>
<path d="M349.252 395.397C364.896 408.763 367.596 431.074 355.282 445.227C342.969 459.379 320.301 460.016 304.656 446.649C289.011 433.282 286.312 410.973 298.625 396.82C310.941 382.667 333.607 382.029 349.252 395.397Z" fill="#263238"/>
<g opacity="0.3">
<path d="M387.317 454.385C383.109 457.292 383.471 461.347 383.542 466.428C383.574 468.816 384.285 470.6 385.728 472.513C387.17 474.427 389.503 475.75 391.911 475.659C395.943 475.506 399.587 471.985 401.348 468.388C403.985 463.003 404.657 456.949 405.057 450.976C399.954 450.358 391.523 451.478 387.317 454.385Z" fill="black"/>
</g>
<path d="M401.348 468.389C401.368 468.402 401.289 468.59 401.099 468.927C400.909 469.265 400.602 469.748 400.156 470.334C399.246 471.501 397.818 473.083 395.642 474.656C394.519 475.385 393.122 476.004 391.509 476.15C389.91 476.325 388.086 475.862 386.66 474.724C385.223 473.612 384.16 471.922 383.677 470.044C383.175 468.163 383.166 466.159 383.253 464.168C383.338 462.172 383.577 460.167 384.329 458.364C385.071 456.553 386.364 455.087 387.781 454.023C390.653 451.878 393.868 451.108 396.473 450.767C399.108 450.438 401.25 450.477 402.72 450.505C404.192 450.543 405.004 450.604 405.004 450.653C405.004 450.707 404.19 450.746 402.721 450.798C401.255 450.861 399.127 450.906 396.55 451.295C394.002 451.695 390.91 452.51 388.211 454.576C386.878 455.601 385.7 456.965 385.021 458.645C384.329 460.324 384.097 462.237 384.015 464.201C383.927 466.17 383.939 468.097 384.399 469.857C384.842 471.611 385.804 473.148 387.098 474.178C388.384 475.22 389.985 475.654 391.458 475.524C392.939 475.419 394.27 474.87 395.35 474.204C397.463 472.76 398.976 471.223 399.924 470.147C400.871 469.049 401.292 468.354 401.348 468.389Z" fill="#263238"/>
<path d="M336.193 673.382C323.824 671.262 310.74 671.047 298.529 673.926C292.181 675.423 285.771 677.366 280.563 681.26C275.354 685.153 271.111 689.186 271.611 695.631L367.032 695.73C367.032 684.238 348.562 675.501 336.193 673.382Z" fill="#263238"/>
<path d="M441.566 672.969C453.934 670.85 467.019 670.635 479.23 673.514C485.578 675.01 491.987 676.954 497.196 680.847C502.405 684.74 506.285 689.184 505.785 695.631L410.729 695.317C410.727 683.827 429.197 675.089 441.566 672.969Z" fill="#263238"/>
<path d="M300.781 266.196C300.749 266.262 299.645 265.733 297.594 264.934C295.547 264.128 292.492 263.166 288.615 262.515C284.743 261.854 280.019 261.633 274.871 262.325C269.731 263.005 264.188 264.696 258.982 267.626C253.812 270.621 249.555 274.525 246.384 278.591C243.198 282.658 241.021 286.82 239.658 290.469C238.282 294.12 237.589 297.222 237.268 299.38C236.938 301.539 236.844 302.751 236.771 302.745C236.745 302.743 236.746 302.44 236.772 301.863C236.819 301.288 236.806 300.428 236.972 299.34C237.206 297.153 237.824 294.004 239.15 290.283C240.465 286.566 242.622 282.318 245.827 278.164C249.015 274.012 253.332 270.02 258.601 266.969C263.905 263.984 269.554 262.284 274.777 261.632C280.011 260.968 284.8 261.25 288.706 261.986C292.618 262.714 295.678 263.764 297.704 264.661C298.737 265.063 299.482 265.506 300.007 265.755C300.527 266.022 300.793 266.173 300.781 266.196Z" fill="#263238"/>
<g opacity="0.3">
<path d="M391.524 311.92C392.985 301.485 389.27 290.461 381.777 282.988C374.283 275.515 363.182 271.766 352.643 273.146C352.621 262.929 352.599 252.711 352.577 242.494C352.577 242.494 360.524 244.076 360.664 266.196C360.664 266.196 379.43 264.411 389.825 282.159C400.221 299.905 391.524 311.92 391.524 311.92Z" fill="black"/>
</g>
<path d="M364.842 356.071C364.816 356.066 364.841 355.635 364.91 354.82C364.949 354.391 364.995 353.891 365.047 353.316C365.116 352.724 365.179 352.038 365.151 351.262C365.286 348.174 364.942 343.648 363.395 338.339C363.081 336.989 362.464 335.667 361.964 334.245C361.412 332.843 360.685 331.444 359.976 329.983C359.123 328.597 358.39 327.075 357.336 325.69C356.832 324.986 356.35 324.249 355.809 323.542C355.238 322.856 354.659 322.162 354.074 321.458C351.628 318.751 348.86 316.027 345.497 313.864C342.175 311.663 338.434 309.827 334.371 308.615C330.281 307.491 326.128 307.065 322.132 307.17C318.122 307.221 314.312 308.062 310.785 309.058C309.911 309.343 309.048 309.625 308.196 309.902C307.357 310.215 306.552 310.582 305.746 310.912C304.11 311.525 302.669 312.426 301.202 313.146C299.816 314.008 298.448 314.807 297.226 315.7C296.037 316.638 294.804 317.432 293.812 318.406C289.645 322.08 286.917 325.725 285.369 328.407C284.928 329.049 284.612 329.66 284.351 330.199C284.086 330.715 283.856 331.162 283.658 331.545C283.278 332.271 283.067 332.647 283.042 332.638C283.019 332.628 283.182 332.232 283.519 331.482C283.698 331.088 283.907 330.629 284.149 330.099C284.391 329.547 284.687 328.921 285.112 328.261C286.593 325.513 289.282 321.778 293.454 318.008C294.448 317.009 295.684 316.192 296.88 315.229C298.11 314.311 299.488 313.489 300.885 312.604C302.364 311.86 303.821 310.938 305.475 310.305C306.29 309.965 307.105 309.586 307.954 309.264C308.817 308.977 309.693 308.686 310.577 308.393C314.152 307.361 318.022 306.494 322.105 306.43C326.172 306.313 330.409 306.741 334.582 307.889C338.728 309.124 342.541 311.002 345.916 313.252C349.333 315.465 352.138 318.244 354.607 321.007C355.197 321.724 355.781 322.432 356.355 323.131C356.901 323.851 357.386 324.602 357.892 325.321C358.949 326.732 359.685 328.282 360.535 329.694C361.242 331.181 361.963 332.605 362.51 334.032C363.002 335.477 363.609 336.822 363.911 338.194C365.409 343.589 365.672 348.169 365.445 351.277C365.449 352.058 365.363 352.745 365.269 353.339C365.188 353.916 365.118 354.416 365.056 354.843C364.943 355.652 364.869 356.075 364.842 356.071Z" fill="#263238"/>
<path d="M227.686 400.594C227.68 400.619 227.409 400.571 226.898 400.454C226.394 400.318 225.622 400.194 224.682 399.864C222.772 399.296 220.071 398.211 217.007 396.376C213.942 394.551 210.579 391.864 207.544 388.248C204.51 384.647 201.884 380.056 200.389 374.821C198.962 369.565 198.839 364.289 199.581 359.654C200.314 355.007 201.811 350.989 203.498 347.866C205.178 344.734 206.936 342.43 208.28 340.971C208.917 340.21 209.515 339.712 209.878 339.338C210.256 338.978 210.463 338.799 210.482 338.818C210.534 338.869 209.767 339.652 208.508 341.163C207.242 342.666 205.574 344.992 203.979 348.111C202.377 351.221 200.959 355.19 200.277 359.759C199.587 364.316 199.732 369.482 201.126 374.62C202.589 379.738 205.139 384.246 208.09 387.805C211.039 391.38 214.31 394.066 217.296 395.923C220.279 397.788 222.915 398.937 224.78 399.585C226.639 400.241 227.705 400.525 227.686 400.594Z" fill="#263238"/>
<path d="M173.865 347.163C173.874 347.078 175.491 347.138 178.049 347.643C180.605 348.145 184.089 349.175 187.675 350.913C191.258 352.662 194.21 354.765 196.173 356.461C198.142 358.159 199.179 359.388 199.117 359.448C199.029 359.537 197.862 358.446 195.832 356.875C193.806 355.303 190.859 353.31 187.339 351.592C183.817 349.883 180.424 348.792 177.929 348.165C175.434 347.533 173.849 347.285 173.865 347.163Z" fill="#263238"/>
<path d="M387.834 325.307C387.793 325.432 386.213 324.933 383.599 324.479C380.989 324.024 377.311 323.716 373.3 324.2C369.289 324.697 365.802 325.895 363.402 327.003C360.996 328.109 359.611 329.015 359.537 328.905C359.508 328.861 359.829 328.601 360.439 328.163C361.042 327.714 361.973 327.147 363.164 326.523C365.544 325.27 369.097 323.956 373.206 323.447C377.316 322.952 381.08 323.354 383.703 323.953C385.017 324.252 386.065 324.557 386.766 324.829C387.472 325.09 387.852 325.257 387.834 325.307Z" fill="#263238"/>
<g opacity="0.3">
<path d="M376.188 317.674C370.587 316.683 364.649 317.674 359.683 320.429C351.486 306.522 334.661 298.121 318.504 299.867C302.347 301.613 289.655 313.938 284.676 329.268C292.946 313.981 307.251 307.938 322.341 307.513C337.432 307.088 352.798 315.316 359.486 328.728C368.851 323.444 380.539 322.39 390.712 325.914C387.015 321.63 381.79 318.665 376.188 317.674Z" fill="black"/>
</g>
<g opacity="0.3">
<path d="M214.862 335.512C206.094 336.06 197.731 341.066 193.161 348.501C187.256 345.708 180.404 345.45 174.093 347.163C183.864 348.041 193.517 353.011 199.944 360.436C199.415 350.213 205.555 339.954 214.862 335.512Z" fill="black"/>
</g>
<g opacity="0.3">
<path d="M567.557 399.028C559.082 384.872 540.647 374.264 524.046 374.835L523.64 374.813C536.809 379.757 551.688 390.084 559.551 406.046C565.729 418.588 568.306 434.675 565.766 448.401C574.23 434.236 576.034 413.185 567.557 399.028Z" fill="black"/>
</g>
<path d="M572.315 610.456C572.474 609.274 572.606 608.087 572.633 606.894C572.707 603.357 573.008 600.398 572.061 596.493C571.4 593.762 570.06 591.003 569.069 589.819C571.162 585.203 572.533 580.336 573.078 575.391C573.284 573.53 573.358 571.575 572.467 569.871C570.929 566.93 567.028 565.584 563.423 564.821C556.351 563.326 548.958 563.007 541.759 563.883C540.872 563.99 539.928 564.141 539.287 564.685C538.426 565.414 538.394 566.592 538.444 567.639C538.617 571.265 539.149 577.339 538.723 583.292C535.065 584.63 531.686 586.77 528.861 589.595C528.829 589.627 528.796 589.661 528.763 589.693C525.507 592.924 517.916 598.044 517.916 598.044C515.759 599.487 514.409 600.983 514.261 602.74C514.125 604.368 514.94 605.809 516.325 606.695C520.804 609.558 530.84 602.346 530.84 602.346C530.84 602.346 529.098 607.767 526.432 611.723C521.93 618.401 525.461 612.813 518.587 622.983C517.878 624.035 515.664 626.734 516.551 629.565C517.48 632.529 519.615 632.887 522.557 631.766C527.536 629.869 534.058 623.008 538.384 619.537C537.191 620.991 531.353 629.33 530.384 630.855C529.026 632.988 527.656 634.747 528.293 636.534C528.931 638.322 531.514 638.937 533.423 638.794C534.973 638.678 536.267 637.622 537.418 636.588C540.684 633.653 544.987 628.454 547.807 625.097C546.486 628.08 543.343 633.907 542.486 637.052C542.171 638.212 541.304 640.733 541.839 641.81C542.748 643.636 545.396 643.761 547.305 643.006C549.775 642.028 553.152 638.133 554.607 635.925C556.061 633.717 557.042 631.243 558.014 628.789C558.014 628.789 557.64 630.573 557.169 631.605C556.699 632.635 555.473 635.649 555.456 636.779C555.438 637.909 554.148 642.144 555.966 643.298C558.408 644.848 560.488 642.285 561.126 641.492C565.374 636.205 567.824 628.978 569.542 624.006C571.061 619.602 571.693 615.058 572.315 610.456Z" fill="white"/>
<path d="M572.314 610.456C572.314 610.456 572.297 610.783 572.225 611.415C572.14 612.073 572.019 613.004 571.864 614.217C571.492 616.664 571.002 620.333 569.425 624.806C568.661 627.039 567.806 629.526 566.677 632.179C565.546 634.824 564.172 637.665 562.205 640.426C561.209 641.733 560.184 643.375 558.261 643.928C557.298 644.174 556.253 643.911 555.476 643.208C554.766 642.385 554.731 641.32 554.753 640.37C554.788 639.399 554.961 638.433 555.114 637.475C555.152 637.235 555.182 636.999 555.194 636.779C555.206 636.502 555.25 636.246 555.306 635.996C555.417 635.497 555.568 635.014 555.729 634.533C556.056 633.573 556.427 632.622 556.843 631.667C557.261 630.758 557.512 629.75 557.741 628.736L558.27 628.891C557.144 631.746 555.954 634.815 553.851 637.477C552.822 638.801 551.686 640.078 550.396 641.252C549.748 641.835 549.06 642.395 548.278 642.857C547.493 643.331 546.584 643.626 545.658 643.716C544.734 643.812 543.748 643.719 542.864 643.264C542.427 643.035 542.03 642.698 541.745 642.276C541.436 641.883 541.33 641.267 541.349 640.811C541.376 639.84 541.621 638.941 541.864 638.046C542.117 637.167 542.358 636.256 542.702 635.373C544.053 631.863 545.891 628.493 547.495 624.96L548.069 625.313C545.794 628.028 543.468 630.829 540.934 633.567C539.66 634.931 538.347 636.29 536.865 637.533C536.116 638.145 535.27 638.73 534.255 639.008C533.213 639.271 532.213 639.186 531.207 638.995C530.222 638.777 529.196 638.382 528.466 637.535C527.72 636.682 527.616 635.424 527.959 634.43C528.286 633.422 528.846 632.574 529.376 631.734C529.903 630.893 530.469 630.081 531.055 629.263C533.367 625.989 535.714 622.665 538.092 619.3L538.62 619.825C534.672 623.054 531.005 626.854 526.593 629.947C525.487 630.716 524.319 631.423 523.04 631.965C521.784 632.482 520.369 632.949 518.867 632.6C518.122 632.43 517.454 631.945 517.014 631.346C516.565 630.743 516.294 630.081 516.112 629.379C515.747 627.94 516.121 626.442 516.745 625.193C521.456 617.226 528.066 610.718 530.479 602.228L531.059 602.644C529.111 603.983 527.101 605.169 524.971 606.124C522.856 607.061 520.589 607.869 518.167 607.686C516.962 607.539 515.779 606.948 514.999 606.034C514.193 605.129 513.777 603.881 513.894 602.684C514.001 601.458 514.672 600.392 515.463 599.574C516.251 598.743 517.188 598.084 518.091 597.481C521.662 594.995 525.187 592.513 528.234 589.702C531.184 586.686 534.777 584.351 538.602 582.97L538.381 583.262C538.659 579.306 538.543 575.417 538.341 571.634C538.288 570.687 538.235 569.746 538.183 568.812C538.152 567.882 538.013 566.944 538.218 565.946C538.322 565.456 538.554 564.958 538.93 564.581C539.307 564.201 539.792 563.98 540.259 563.842C541.21 563.573 542.116 563.544 543.021 563.429C550.268 562.707 557.175 563.223 563.385 564.534C566.453 565.21 569.567 566.134 571.675 568.338C572.728 569.423 573.285 570.888 573.4 572.291C573.532 573.704 573.356 575.064 573.191 576.366C572.483 581.6 570.949 586.134 569.234 589.886L569.208 589.699C570.301 591.121 570.943 592.653 571.492 594.097C572.025 595.55 572.36 596.962 572.56 598.281C572.969 600.928 572.845 603.188 572.782 604.987C572.745 606.79 572.587 608.157 572.486 609.072C572.387 609.994 572.314 610.456 572.314 610.456C572.314 610.456 572.323 609.986 572.389 609.07C572.458 608.155 572.585 606.796 572.591 604.988C572.625 603.188 572.717 600.941 572.285 598.332C572.071 597.029 571.728 595.642 571.19 594.215C570.641 592.802 569.976 591.273 568.929 589.935C568.885 589.883 568.879 589.808 568.903 589.748C570.575 586.007 572.063 581.501 572.733 576.315C572.893 575.021 573.053 573.684 572.92 572.346C572.798 571.013 572.286 569.691 571.303 568.684C569.335 566.636 566.302 565.717 563.269 565.07C557.106 563.797 550.258 563.31 543.081 564.048C542.191 564.162 541.258 564.208 540.437 564.446C539.597 564.666 538.992 565.247 538.837 566.089C538.662 566.913 538.785 567.853 538.823 568.786C538.879 569.72 538.933 570.661 538.989 571.608C539.203 575.401 539.331 579.315 539.056 583.318C539.048 583.455 538.955 583.567 538.835 583.612C535.101 584.976 531.633 587.231 528.723 590.213C525.604 593.097 522.092 595.573 518.502 598.081C517.591 598.691 516.722 599.308 515.992 600.077C515.265 600.832 514.709 601.75 514.624 602.754C514.529 603.764 514.872 604.791 515.555 605.561C516.241 606.348 517.203 606.826 518.248 606.96C520.394 607.127 522.602 606.376 524.657 605.453C526.726 604.525 528.724 603.344 530.612 602.042L530.623 602.035C530.793 601.917 531.027 601.959 531.144 602.128C531.215 602.228 531.228 602.352 531.193 602.458C530.486 604.555 529.649 606.602 528.649 608.609C527.674 610.634 526.37 612.5 525.097 614.341C524.471 615.278 523.749 616.179 523.099 617.076C522.456 618 521.809 618.928 521.162 619.857L519.243 622.679C518.603 623.645 517.904 624.53 517.426 625.524C516.845 626.686 516.539 627.99 516.847 629.199C517.152 630.414 517.865 631.608 519.051 631.868C520.223 632.154 521.554 631.769 522.738 631.268C523.936 630.761 525.071 630.078 526.15 629.327C530.48 626.297 534.135 622.518 538.14 619.244C538.3 619.113 538.536 619.136 538.668 619.295C538.778 619.425 538.779 619.61 538.686 619.743L538.668 619.768C536.303 623.109 533.968 626.41 531.668 629.661C531.087 630.467 530.517 631.287 529.989 632.125C529.461 632.951 528.929 633.777 528.651 634.644C528.363 635.497 528.463 636.426 529.019 637.071C529.571 637.725 530.461 638.098 531.353 638.292C532.241 638.47 533.231 638.536 534.059 638.318C534.914 638.088 535.688 637.568 536.403 636.986C537.835 635.789 539.144 634.442 540.41 633.092C542.93 630.377 545.256 627.59 547.539 624.879C547.658 624.733 547.873 624.712 548.018 624.829C548.14 624.927 548.174 625.095 548.113 625.23C546.483 628.8 544.645 632.152 543.311 635.598C542.975 636.45 542.741 637.33 542.483 638.216C542.241 639.088 542.008 639.971 541.984 640.818C541.909 641.653 542.439 642.316 543.157 642.708C543.878 643.084 544.753 643.184 545.589 643.097C547.31 642.978 548.722 641.928 549.981 640.803C551.237 639.667 552.363 638.412 553.376 637.118C555.429 634.542 556.609 631.544 557.748 628.689C557.801 628.547 557.961 628.476 558.103 628.528C558.233 628.576 558.304 628.715 558.276 628.846C558.037 629.886 557.779 630.915 557.332 631.881C556.92 632.813 556.546 633.759 556.222 634.698C556.062 635.167 555.913 635.639 555.807 636.105C555.753 636.338 555.715 636.57 555.704 636.785C555.69 637.058 555.655 637.307 555.615 637.549C555.455 638.52 555.284 639.457 555.245 640.385C555.207 641.293 555.288 642.263 555.823 642.875C556.421 643.418 557.348 643.69 558.144 643.472C559.809 643.022 560.857 641.47 561.843 640.168C563.798 637.461 565.184 634.651 566.328 632.029C567.47 629.4 568.346 626.927 569.13 624.703C570.743 620.272 571.279 616.627 571.701 614.188C571.89 612.981 572.037 612.054 572.14 611.399C572.244 610.776 572.314 610.456 572.314 610.456Z" fill="#263238"/>
<path d="M569.233 589.943C569.141 590.047 567.743 588.805 565.245 587.159C562.75 585.531 559.027 583.605 554.544 582.747C550.058 581.905 545.875 582.256 542.917 582.701C539.95 583.17 538.141 583.655 538.107 583.528C538.092 583.478 538.53 583.313 539.34 583.055C540.145 582.785 541.336 582.485 542.824 582.174C545.793 581.588 550.071 581.136 554.689 582.004C559.304 582.887 563.099 584.951 565.552 586.718C566.776 587.615 567.727 588.391 568.331 588.985C568.946 589.566 569.268 589.905 569.233 589.943Z" fill="#263238"/>
</svg>
