<svg width="775" height="764" viewBox="0 0 775 764" fill="none" xmlns="http://www.w3.org/2000/svg">
<path d="M126.926 763.78C196.763 763.78 253.376 760.621 253.376 756.724C253.376 752.827 196.763 749.668 126.926 749.668C57.0897 749.668 0.476074 752.827 0.476074 756.724C0.476074 760.621 57.0897 763.78 126.926 763.78Z" fill="#82827E"/>
<path d="M180.79 502.553V745.07H120.88L127.385 562.25L105.027 745.07H45.145L91.1942 502.553H180.79Z" fill="#00C2FF"/>
<path d="M105.43 350.161L104.145 350.622C91.6412 355.11 82.5978 366.086 80.5843 379.216L70.895 442.4L97.7153 432.73L105.43 350.161Z" fill="#CFCFD0"/>
<path d="M78.8649 390.439L70.897 442.4L97.7172 432.73L101.308 394.283L78.8649 390.439Z" fill="#D18E86"/>
<path d="M145.889 342.469L180.79 357.907V502.553H91.1943L105.43 350.161L145.889 342.469Z" fill="white"/>
<path d="M126.217 298.171C126.217 298.171 125.844 293.709 128.547 290.846C131.251 287.984 142.383 283.371 152.722 289.573C163.059 295.776 168.307 305 163.377 322.812C159.243 334.422 152.502 337.453 152.502 337.453L138.601 317.882L126.217 298.171Z" fill="#C73C27"/>
<path d="M137.974 374.277L117.376 450.505C114.588 460.824 107.285 469.331 97.5058 473.65L93.7393 475.314L101.121 396.28L137.974 374.277Z" fill="#A4A4A4"/>
<path d="M180.79 461.921C180.79 461.921 153.986 464.156 153.986 502.554H180.79V461.921Z" fill="#A4A4A4"/>
<path d="M126.34 297.451C126.34 297.451 122.899 317.015 123.172 329.923C123.209 331.648 124.578 333.046 126.299 333.165L137.926 333.968L135.765 346.76C135.051 350.986 138.308 354.839 142.594 354.839H144.662C148.26 354.839 151.257 352.084 151.564 348.501L154.047 319.313C154.047 319.313 128.859 309.297 126.34 297.451Z" fill="#F7A89C"/>
<path d="M153.36 325.041C156.698 325.041 159.404 322.335 159.404 318.997C159.404 315.658 156.698 312.952 153.36 312.952C150.022 312.952 147.316 315.658 147.316 318.997C147.316 322.335 150.022 325.041 153.36 325.041Z" fill="#F7A89C"/>
<path d="M130.135 315.177C129.978 316.883 129.355 318.22 128.743 318.164C128.13 318.108 127.761 316.678 127.917 314.973C128.074 313.267 128.697 311.93 129.31 311.986C129.922 312.042 130.292 313.472 130.135 315.177Z" fill="#C73C27"/>
<path d="M127.882 308.818C127.882 308.818 130.776 308.341 132.209 310.249" stroke="#C73C27" stroke-width="2.1158" stroke-miterlimit="10" stroke-linecap="round"/>
<path d="M137.927 333.966H144.476C144.476 333.966 140.289 346.619 135.583 347.848C137.927 333.966 137.927 333.966 137.927 333.966Z" fill="#4D3529"/>
<path d="M180.79 357.907L188.116 361.506C198.444 366.58 206.658 375.124 211.324 385.644L240.654 451.781C246.253 464.404 240.209 479.149 227.36 484.211L180.79 502.556H173.88C168.526 502.556 164.186 498.216 164.186 492.862V477.165C164.186 473.147 166.664 469.546 170.415 468.109L200.5 456.595L176.504 404.947C176.504 404.947 169.304 362.12 180.79 357.907Z" fill="#F7A89C"/>
<path d="M120.881 745.07C120.881 745.07 115.482 744.232 112.967 754.281C174.928 754.281 180.789 754.281 180.789 754.281V745.07H120.881Z" fill="#4D3529"/>
<path d="M44.8992 745.07C44.8992 745.07 39.501 744.232 36.9858 754.281C98.9463 754.281 104.807 754.281 104.807 754.281V745.07H44.8992Z" fill="#4D3529"/>
<path d="M211.324 385.642C206.66 375.124 198.444 366.579 188.116 361.504L180.79 357.905C169.306 362.119 176.504 404.945 176.504 404.945L184.812 422.826C193.644 417.475 207.214 410.732 221.67 408.971L211.324 385.642Z" fill="#CFCFD0"/>
<path d="M221.67 468.296C221.67 474.508 224.854 479.969 229.675 483.155C240.915 477.322 245.905 463.618 240.654 451.779L240.096 450.521C239.889 450.514 239.686 450.489 239.477 450.489C229.643 450.489 221.67 458.461 221.67 468.296Z" fill="#EF7D6E"/>
<path opacity="0.41" d="M180.791 502.553H159.865V745.07H180.791V502.553Z" fill="white"/>
<path d="M127.304 564.508C127.304 564.508 97.2773 628.47 86.1025 745.053C105.027 745.053 105.027 745.053 105.027 745.053L127.304 564.508Z" fill="#00C2FF"/>
<path d="M91.1943 502.553L180.79 523.285V502.553H91.1943Z" fill="#00C2FF"/>
<path d="M127.305 564.508V502.553H112.967C112.967 502.553 111.212 551.89 127.305 564.508Z" fill="#00C2FF"/>
<path opacity="0.41" d="M63.6677 665.894C78.4032 665.894 90.3489 653.949 90.3489 639.213C90.3489 626.72 81.7509 616.263 70.1572 613.359L60.2285 665.646C61.3567 665.792 62.499 665.894 63.6677 665.894Z" fill="#00C2FF"/>
<g opacity="0.41">
<path d="M127.305 612.532C126.727 612.532 126.162 612.581 125.592 612.618L123.707 665.623C124.886 665.783 126.081 665.894 127.305 665.894C142.04 665.894 153.986 653.949 153.986 639.213C153.986 624.478 142.04 612.532 127.305 612.532Z" fill="#00C2FF"/>
</g>
<path opacity="0.41" d="M170.413 468.108C166.661 469.544 164.184 473.145 164.184 477.163V492.86C164.184 498.214 168.524 502.556 173.879 502.556H180.789C180.791 470.523 170.413 468.108 170.413 468.108Z" fill="white"/>
<path opacity="0.41" d="M211.325 385.642C207.539 377.106 201.387 369.909 193.696 364.773C192.793 379.045 192.784 406.314 203.466 424.795C217.013 448.233 228.016 469.782 239.071 474.411C243.144 467.831 244.045 459.423 240.655 451.779L211.325 385.642Z" fill="white"/>
<path opacity="0.36" d="M128.549 290.846C125.845 293.707 126.217 298.168 126.218 298.171C125.611 301.79 122.93 318.468 123.172 329.921C123.209 331.646 124.578 333.044 126.299 333.163L132.613 333.598C147.665 320.586 139.385 289.372 138.639 286.697C133.82 287.32 129.987 289.323 128.549 290.846ZM126.938 299.319L129.668 303.666C128.492 302.265 127.552 300.811 126.938 299.319Z" fill="#851619"/>
<path d="M122.97 327.66L72.5345 436.572C69.0653 444.065 71.2408 452.96 77.776 458.007L78.0717 458.235C87.233 465.309 100.608 461.824 105.151 451.179L137.975 374.277C140.391 368.68 139.025 362.17 134.562 358.018L126.117 350.162L128.324 329.151C128.438 328.054 127.898 326.991 126.942 326.44L126.9 326.415C125.478 325.593 123.66 326.171 122.97 327.66Z" fill="#F7A89C"/>
<path d="M102.582 455.396C98.2031 445.587 88.3818 438.739 76.9465 438.739C75.1002 438.739 73.2979 438.929 71.5501 439.269C69.6475 446.107 72.0112 453.554 77.7773 458.005L78.073 458.234C85.879 464.264 96.7282 462.602 102.582 455.396Z" fill="#EF7D6E"/>
<path opacity="0.41" d="M152.723 289.575C149.712 287.769 146.639 286.898 143.719 286.616C146.538 295.446 152.681 308.494 165.125 313.417C166.081 301.556 161.063 294.579 152.723 289.575Z" fill="white"/>
<path d="M200.5 456.593L213.193 450.489" stroke="#983533" stroke-width="1.99418" stroke-miterlimit="10"/>
<path d="M164.184 479.92L172.486 483.155" stroke="#983533" stroke-width="1.99418" stroke-miterlimit="10"/>
<path d="M164.184 489.023L172.486 492.258" stroke="#983533" stroke-width="1.99418" stroke-miterlimit="10"/>
<path d="M176.505 404.945C176.505 404.945 171.978 440.214 180.791 450.488C182.134 417.06 182.134 417.06 182.134 417.06L176.505 404.945Z" fill="#A4A4A4"/>
<path opacity="0.41" d="M161.045 390.366C161.045 390.366 137.92 459.36 123.707 469.053C109.494 478.746 146.514 475.852 155.591 442.4C164.668 408.949 161.045 390.366 161.045 390.366Z" fill="#CFCFD0"/>
<path opacity="0.41" d="M134.561 358.016L126.116 350.161C126.116 350.161 94.2094 400.225 110.767 438.021L137.974 374.276C140.392 368.68 139.025 362.168 134.561 358.016Z" fill="white"/>
<path d="M91.0503 149.445C104.21 134.219 121.128 125.195 139.928 125.195C164.93 125.195 184.669 138.353 184.669 163.732C184.669 188.171 154.778 194.187 154.778 205.465V215.804H120L119.812 200.766C119.812 183.471 149.702 173.696 149.702 163.355C149.702 156.211 142.371 154.52 135.79 154.52C127.708 154.52 117.744 162.415 111.351 169.934L91.0503 149.445ZM136.355 220.504C149.702 220.504 158.726 229.716 158.726 240.43C158.726 250.958 150.078 259.794 136.355 259.794C124.136 259.794 114.924 250.205 114.924 240.43C114.924 231.032 122.82 220.504 136.355 220.504Z" fill="#82827E"/>
<path d="M95.3887 149.445C108.549 134.219 125.467 125.195 144.266 125.195C169.268 125.195 189.008 138.353 189.008 163.732C189.008 188.171 159.116 194.187 159.116 205.465V215.804H124.339L124.15 200.766C124.15 183.471 154.04 173.696 154.04 163.355C154.04 156.211 146.709 154.52 140.128 154.52C132.046 154.52 122.082 162.415 115.69 169.934L95.3887 149.445ZM140.693 220.504C154.04 220.504 163.064 229.716 163.064 240.43C163.064 250.958 154.417 259.794 140.693 259.794C128.475 259.794 119.264 250.205 119.264 240.43C119.264 231.032 127.16 220.504 140.693 220.504Z" fill="white"/>
<path d="M111.353 169.936H115.692L111.276 165.478L111.353 169.936Z" fill="#82827E"/>
<g opacity="0.53">
<path d="M228.623 57.6478C238.687 46.0031 251.623 39.1035 266 39.1035C285.12 39.1035 300.214 49.1659 300.214 68.5727C300.214 87.2613 277.356 91.8622 277.356 100.487V108.393H250.761L250.617 96.8925C250.617 83.6672 273.473 76.1921 273.473 68.284C273.473 62.8207 267.867 61.5271 262.835 61.5271C256.654 61.5271 249.036 67.5659 244.147 73.3161L228.623 57.6478ZM263.268 111.987C273.475 111.987 280.376 119.033 280.376 127.226C280.376 135.277 273.764 142.034 263.268 142.034C253.924 142.034 246.88 134.701 246.88 127.226C246.88 120.039 252.919 111.987 263.268 111.987Z" fill="white"/>
</g>
<g opacity="0.36">
<path d="M504.485 166.152C513.396 155.841 524.853 149.73 537.583 149.73C554.515 149.73 567.882 158.642 567.882 175.827C567.882 192.377 547.64 196.45 547.64 204.089V211.091H524.09L523.962 200.907C523.962 189.195 544.203 182.575 544.203 175.574C544.203 170.737 539.238 169.591 534.783 169.591C529.309 169.591 522.563 174.938 518.235 180.03L504.485 166.152ZM535.163 214.271C544.201 214.271 550.312 220.511 550.312 227.766C550.312 234.896 544.456 240.878 535.163 240.878C526.889 240.878 520.651 234.385 520.651 227.766C520.651 221.401 525.998 214.271 535.163 214.271Z" fill="white"/>
</g>
<g opacity="0.21">
<path d="M551.636 12.1583C557.946 4.85748 566.058 0.529419 575.073 0.529419C587.063 0.529419 596.527 6.83934 596.527 19.0086C596.527 30.7273 582.194 33.6121 582.194 39.0208V43.979H565.519L565.43 36.7679C565.43 28.4744 579.762 23.7872 579.762 18.8291C579.762 15.4039 576.247 14.5925 573.091 14.5925C569.216 14.5925 564.439 18.3785 561.373 21.9849L551.636 12.1583ZM573.361 46.2319C579.76 46.2319 584.088 50.6497 584.088 55.7874C584.088 60.8354 579.941 65.0719 573.361 65.0719C567.501 65.0719 563.085 60.4746 563.085 55.7874C563.083 51.2799 566.869 46.2319 573.361 46.2319Z" fill="white"/>
</g>
<g opacity="0.21">
<path d="M727.71 213.465C731.959 208.549 737.419 205.638 743.487 205.638C751.557 205.638 757.929 209.885 757.929 218.078C757.929 225.967 748.28 227.908 748.28 231.55V234.887H737.054L736.993 230.033C736.993 224.45 746.642 221.294 746.642 217.957C746.642 215.651 744.274 215.105 742.151 215.105C739.543 215.105 736.326 217.654 734.263 220.081L727.71 213.465ZM742.335 236.403C746.643 236.403 749.556 239.375 749.556 242.836C749.556 246.234 746.765 249.086 742.335 249.086C738.39 249.086 735.417 245.99 735.417 242.836C735.416 239.801 737.966 236.403 742.335 236.403Z" fill="white"/>
</g>
<g opacity="0.32">
<path d="M81.9824 29.0324C88.933 20.9905 97.8672 16.226 107.796 16.226C121 16.226 131.425 23.1748 131.425 36.5779C131.425 49.4846 115.639 52.6616 115.639 58.6195V64.0793H97.2723L97.172 56.136C97.172 47.0011 112.958 41.8388 112.958 36.379C112.958 32.6053 109.086 31.713 105.612 31.713C101.343 31.713 96.0807 35.8826 92.7049 39.8534L81.9824 29.0324ZM105.909 66.561C112.958 66.561 117.725 71.4259 117.725 77.0846C117.725 82.6447 113.157 87.3107 105.909 87.3107C99.4566 87.3107 94.5917 82.2469 94.5917 77.0846C94.5917 72.1211 98.7614 66.561 105.909 66.561Z" fill="white"/>
</g>
<g opacity="0.16">
<path d="M38.0591 150.213C42.7251 144.813 48.7252 141.613 55.3924 141.613C64.258 141.613 71.2579 146.279 71.2579 155.278C71.2579 163.945 60.6586 166.078 60.6586 170.077V173.743H48.3257L48.2588 168.41C48.2588 162.276 58.8581 158.811 58.8581 155.144C58.8581 152.612 56.2584 152.011 53.9245 152.011C51.0591 152.011 47.5248 154.812 45.2578 157.478L38.0591 150.213ZM54.1252 175.412C58.8581 175.412 62.0579 178.679 62.0579 182.479C62.0579 186.212 58.9918 189.345 54.1252 189.345C49.7918 189.345 46.5251 185.944 46.5251 182.479C46.5251 179.145 49.3254 175.412 54.1252 175.412Z" fill="white"/>
</g>
<path d="M584.348 118.705C601.172 99.237 622.804 87.6996 646.841 87.6996C678.81 87.6996 704.046 104.524 704.046 136.973C704.046 168.22 665.827 175.912 665.827 190.332V203.552H621.362L621.121 184.323C621.121 162.211 659.338 149.711 659.338 136.493C659.338 127.36 649.964 125.197 641.552 125.197C631.217 125.197 618.479 135.292 610.305 144.906L584.348 118.705ZM642.272 209.559C659.338 209.559 670.875 221.338 670.875 235.037C670.875 248.498 659.82 259.794 642.272 259.794C626.65 259.794 614.873 247.535 614.873 235.037C614.873 223.021 624.969 209.559 642.272 209.559Z" fill="#82827E"/>
<path d="M589.895 118.705C606.719 99.237 628.352 87.6996 652.388 87.6996C684.357 87.6996 709.593 104.524 709.593 136.973C709.593 168.22 671.376 175.912 671.376 190.332V203.552H626.911L626.67 184.323C626.67 162.211 664.887 149.711 664.887 136.493C664.887 127.36 655.512 125.197 647.101 125.197C636.766 125.197 624.028 135.292 615.854 144.906L589.895 118.705ZM647.821 209.559C664.887 209.559 676.424 221.338 676.424 235.037C676.424 248.498 665.369 259.794 647.821 259.794C632.198 259.794 620.422 247.535 620.422 235.037C620.42 223.021 630.516 209.559 647.821 209.559Z" fill="white"/>
<path d="M610.305 144.904H615.852L610.206 139.205L610.305 144.904Z" fill="#82827E"/>
<path d="M653.422 763.778C720.568 763.778 775 760.741 775 756.995C775 753.248 720.568 750.211 653.422 750.211C586.276 750.211 531.844 753.248 531.844 756.995C531.844 760.741 586.276 763.778 653.422 763.778Z" fill="#82827E"/>
<path d="M677.229 489.509L712.964 600.484C717.549 614.725 714.2 630.332 704.171 641.436L624.207 729.983C624.207 729.983 623.976 755.34 603.691 758.721L591.858 682.649L665.324 614.183L677.229 489.509Z" fill="#A4A4A4"/>
<path opacity="0.33" d="M678.907 494.72C678.907 494.72 697.123 629.825 678.907 669.413C664.124 634.85 670.345 502.898 678.907 494.72Z" fill="#4D3529"/>
<path d="M620.597 491.862C620.597 491.862 601.157 532.194 618.061 645.458C634.967 758.721 634.967 758.721 634.967 758.721H708.454C708.454 758.721 702.713 733.364 682.364 729.138C664.496 552.958 678.244 522.949 677.23 489.509C637.503 485.705 620.597 491.862 620.597 491.862Z" fill="#ECEDEE"/>
<path d="M634.968 758.723H708.455C708.455 758.723 702.713 733.366 682.365 729.14H630.553C634.966 758.718 634.968 758.723 634.968 758.723Z" fill="#4D3529"/>
<path d="M591.859 682.65L603.692 758.723C623.977 755.342 624.208 729.984 624.208 729.984L612.588 663.332L591.859 682.65Z" fill="#4D3529"/>
<g opacity="0.41">
<path d="M677.229 489.509C673.996 489.199 670.93 488.961 667.994 488.775L650.678 489.509C650.678 489.509 631.768 672.836 682.364 729.138C664.495 552.958 678.243 522.949 677.229 489.509Z" fill="white"/>
<path d="M682.363 729.138C687.926 735.328 692.77 737.843 696.986 737.419C693.268 733.594 688.479 730.409 682.363 729.138Z" fill="white"/>
</g>
<path d="M671.229 311.453C671.229 311.453 661.966 304.451 650.678 306.889C639.392 309.325 624.162 323.337 622.64 355.622C621.117 387.907 626.6 398.873 632.996 398.873C639.392 398.873 655.536 365.067 655.536 365.067L662.085 333.691C662.085 333.691 671.389 316.321 671.229 311.453Z" fill="#C73C27"/>
<path d="M650.677 306.889C639.392 309.325 624.162 323.337 622.639 355.622C621.771 374.005 623.178 385.468 625.728 391.938C628.03 390.827 629.428 388.444 628.627 383.859C626.055 369.154 631.582 336.041 644.332 324.268C651.939 317.245 654.648 310.615 655.609 306.394C654.025 306.387 652.379 306.521 650.677 306.889Z" fill="#C73C27"/>
<path d="M650.677 361.453L618.061 381.358L620.597 491.86C620.597 491.86 645.11 499.65 677.23 489.507C675.116 428.226 675.116 428.226 675.116 428.226C675.116 428.226 683.146 419.385 682.301 398.871C681.456 378.357 674.458 365.521 674.458 365.521L662.084 361.327L650.677 361.453Z" fill="#00C2FF"/>
<path d="M618.061 381.36C618.061 381.36 628.627 384.271 628.627 401.812C628.627 419.353 628.627 454.824 628.627 454.824H701.741V460.414C701.741 469.694 694.218 477.214 684.941 477.214H614.953C608.733 477.214 603.69 472.172 603.69 465.952V400.807C603.69 400.807 605.383 386.811 618.061 381.36Z" fill="#F7A89C"/>
<path d="M628.627 454.823H619.788" stroke="#983533" stroke-width="1.53849" stroke-miterlimit="10"/>
<path opacity="0.2" d="M653.652 368.886L653.488 361.423L650.677 361.453L618.061 381.36C605.383 386.813 603.69 400.807 603.69 400.807V465.952C603.69 467.997 604.244 469.91 605.197 471.563C614.638 454.662 611.54 405.287 613.925 398.873C616.827 391.067 653.652 368.886 653.652 368.886Z" fill="#34251E"/>
<path d="M671.229 311.453C671.229 311.453 683.558 323.874 678.935 349.562C665.577 351.618 665.577 351.618 665.577 351.618V381.36C665.577 381.36 650.678 379.031 650.678 365.069C650.678 351.104 650.678 331.667 650.678 331.667C650.678 331.667 667.119 324.718 671.229 311.453Z" fill="#F7A89C"/>
<path d="M670.764 328.818C670.764 328.818 665.89 328.513 662.236 330.34" stroke="#4D3529" stroke-width="1.81606" stroke-miterlimit="10"/>
<path d="M665.577 351.616L657.667 352.88C657.667 352.88 661.323 363.242 666.499 365.067C665.577 351.616 665.577 351.616 665.577 351.616Z" fill="#4D3529"/>
<path d="M648.225 344.961C652.262 344.961 655.534 341.689 655.534 337.652C655.534 333.615 652.262 330.342 648.225 330.342C644.188 330.342 640.915 333.615 640.915 337.652C640.915 341.689 644.188 344.961 648.225 344.961Z" fill="#F7A89C"/>
<path d="M670.764 322.726C670.764 322.726 665.364 321.783 662.236 324.266" stroke="#00D6CA" stroke-width="1.81606" stroke-miterlimit="10" stroke-linecap="round"/>
<path d="M628.627 396.819L639.193 454.823H628.627V396.819Z" fill="#34251E"/>
<path opacity="0.41" d="M675.117 428.229C675.117 428.229 648.349 445.624 652.716 445.624C657.083 445.624 675.611 442.599 675.611 442.599L675.117 428.229Z" fill="white"/>
<path opacity="0.26" d="M659.11 306.649C657.881 316.751 656.389 340.337 667.155 351.375C668.79 351.123 672.117 350.611 678.933 349.562C683.557 323.875 671.228 311.453 671.228 311.453C671.228 311.453 666.227 307.691 659.11 306.649Z" fill="white"/>
<path d="M652.716 346.691C652.716 348.77 651.03 350.456 648.951 350.456C646.873 350.456 645.187 348.77 645.187 346.691C645.187 344.611 646.873 342.927 648.951 342.927C651.032 342.927 652.716 344.613 652.716 346.691Z" fill="#4D3529"/>
<path d="M689.675 735.384C689.675 736.534 688.742 737.467 687.593 737.467H655.503C654.353 737.467 653.42 736.534 653.42 735.384C653.42 734.235 654.353 733.302 655.503 733.302H687.593C688.744 733.302 689.675 734.235 689.675 735.384Z" fill="#FEC853"/>
<path opacity="0.49" d="M633.91 493.082C633.91 493.082 621.153 617.254 646.806 733.302" stroke="#4D3529" stroke-width="1.81606" stroke-miterlimit="10"/>
<path d="M679.422 334.413L676.08 335.249C676.08 335.249 679.32 337.37 679.422 334.413Z" fill="#4D3529"/>
<path d="M675.086 350.154C675.086 350.154 675.086 344.93 675.741 344.123C677.454 349.789 677.454 349.789 677.454 349.789L675.086 350.154Z" fill="#EF7D6E"/>
<path d="M674.457 365.523C677.03 361.024 679.971 355.622 679.971 355.622L675.717 345.771C675.495 345.255 675.497 344.671 675.726 344.157L675.742 344.124C676.294 342.879 677.896 342.532 678.913 343.434L693.272 356.154C694.886 357.583 696.062 359.44 696.665 361.508L719.821 440.916C721.865 447.927 718.098 455.315 711.225 457.778L710.961 457.873C703.459 460.561 695.245 456.357 693.038 448.701L672.88 378.787C671.593 374.334 672.156 369.546 674.457 365.523Z" fill="#F7A89C"/>
<path d="M720.332 445.667C717.815 443.748 714.682 442.597 711.273 442.597C703.993 442.597 697.931 447.789 696.578 454.671C700.225 458.285 705.762 459.735 710.961 457.871L711.225 457.776C716.542 455.872 719.985 451.014 720.332 445.667Z" fill="#EF7D6E"/>
<path opacity="0.41" d="M693.272 406.716C701.057 428.187 712.777 440.082 720.319 445.918C720.455 444.278 720.307 442.586 719.821 440.918L696.665 361.51C696.062 359.44 694.886 357.585 693.274 356.155C693.274 356.155 680.994 372.853 693.272 406.716Z" fill="white"/>
<path d="M596.526 590.131C596.526 590.131 581.667 619.338 557.727 612.416C563.811 588.248 596.526 590.131 596.526 590.131Z" fill="#0087EB"/>
<path d="M536.552 572.998C536.552 572.998 533.741 605.646 557.725 612.416C565.325 588.681 536.552 572.998 536.552 572.998Z" fill="#0087EB"/>
<path d="M584.47 634.338C584.47 634.338 564.462 660.29 542.216 649.055C552.669 626.431 584.47 634.338 584.47 634.338Z" fill="#0087EB"/>
<path d="M528.703 606.4C528.703 606.4 519.898 637.963 542.215 649.054C554.077 627.137 528.703 606.4 528.703 606.4Z" fill="#0087EB"/>
<path d="M565.799 673.894C565.799 673.894 541.709 696.108 521.67 681.29C535.782 660.75 565.799 673.894 565.799 673.894Z" fill="#0087EB"/>
<path d="M515.529 636.971C515.529 636.971 501.538 666.604 521.67 681.292C537.051 661.682 515.529 636.971 515.529 636.971Z" fill="#0087EB"/>
<path d="M479.639 723.757C479.639 723.757 552.692 669.319 565.859 577.066" stroke="#0087EB" stroke-width="3.57386" stroke-miterlimit="10" stroke-linecap="round"/>
<path d="M570.917 539.449C570.917 539.449 584.438 569.299 564.075 583.666C549.007 563.816 570.917 539.449 570.917 539.449Z" fill="#0087EB"/>
<path d="M413.257 755.469C413.257 755.469 431.333 591.838 502.659 577.064C573.985 562.29 511.07 673.135 491.303 706.725C471.535 740.314 510.268 712.829 533.596 694.969C552.153 680.762 558.195 763.903 413.257 755.469Z" fill="#0087EB"/>
<path d="M465.471 636.367C471.815 606.143 523.505 577.114 523.591 577.066C518.51 575.339 511.656 575.2 502.66 577.064C431.334 591.838 413.258 755.469 413.258 755.469C416.029 755.631 418.723 755.747 421.385 755.842C421.77 755.789 422.149 755.75 422.537 755.69C497.493 744.301 463.438 658.333 465.471 636.367Z" fill="#0087EB"/>
<path d="M528.031 579.264C528.031 579.264 477.315 614.964 451.465 720.274" stroke="#1C1C1B" stroke-width="1.88875" stroke-miterlimit="10"/>
<path d="M533.596 694.969C517.963 706.938 495.434 723.205 488.208 722.539C497.009 737.21 531.179 708.598 542.71 698.28C541.439 693.58 537.85 691.711 533.596 694.969Z" fill="#0087EB"/>
<path d="M525.639 639.213C525.639 639.213 502.425 636.393 478.232 645.701" stroke="#1C1C1B" stroke-width="1.88875" stroke-miterlimit="10"/>
<path d="M217.768 545.076C217.768 545.076 230.116 581.649 259.2 577.656C256.222 548.451 217.768 545.076 217.768 545.076Z" fill="#0087EB"/>
<path d="M290.589 535.315C290.589 535.315 288.308 573.85 259.2 577.656C254.382 548.697 290.589 535.315 290.589 535.315Z" fill="#0087EB"/>
<path d="M224.297 598.657C224.297 598.657 243.202 632.312 271.045 623.003C262.711 594.854 224.297 598.657 224.297 598.657Z" fill="#0087EB"/>
<path d="M294.054 575.584C294.054 575.584 298.946 613.875 271.045 623.004C260.949 595.436 294.054 575.584 294.054 575.584Z" fill="#0087EB"/>
<path d="M239.328 647.943C239.328 647.943 263.628 677.937 289.507 664.074C276.554 637.729 239.328 647.943 239.328 647.943Z" fill="#0087EB"/>
<path d="M304.208 613.459C304.208 613.459 315.474 650.381 289.507 664.076C274.916 638.601 304.208 613.459 304.208 613.459Z" fill="#0087EB"/>
<path d="M331.272 720.728C331.272 720.728 255.385 644.842 255.736 535.069" stroke="#0087EB" stroke-width="4.20978" stroke-miterlimit="10" stroke-linecap="round"/>
<path d="M256.243 490.359C256.243 490.359 235.402 522.852 256.694 543.065C277.635 522.491 256.243 490.359 256.243 490.359Z" fill="#0087EB"/>
<path d="M387.178 763.78C457.014 763.78 513.628 760.621 513.628 756.724C513.628 752.827 457.014 749.667 387.178 749.667C317.341 749.667 260.728 752.827 260.728 756.724C260.728 760.621 317.341 763.78 387.178 763.78Z" fill="#82827E"/>
<path d="M193.073 328.695C243.692 270.124 308.767 235.417 381.079 235.417C477.25 235.417 553.174 286.033 553.174 383.65C553.174 477.653 438.199 500.791 438.199 544.177V583.946H304.431L303.705 526.099C303.705 459.575 418.674 421.974 418.674 382.205C418.674 354.728 390.474 348.219 365.166 348.219C334.076 348.219 295.753 378.59 271.165 407.513L193.073 328.695ZM367.338 602.019C418.676 602.019 453.387 637.455 453.387 678.667C453.387 719.163 420.127 753.149 367.338 753.149C320.34 753.149 284.909 716.268 284.909 678.667C284.908 642.515 315.278 602.019 367.338 602.019Z" fill="#7D7B78"/>
<path d="M209.764 328.695C260.383 270.124 325.458 235.417 397.77 235.417C493.941 235.417 569.864 286.034 569.864 383.65C569.864 477.653 454.89 500.791 454.89 544.177V583.946H321.122L320.396 526.099C320.396 459.575 435.365 421.974 435.365 382.205C435.365 354.728 407.165 348.219 381.857 348.219C350.767 348.219 312.444 378.59 287.856 407.513L209.764 328.695ZM384.027 602.019C435.365 602.019 470.076 637.455 470.076 678.667C470.076 719.163 436.816 753.149 384.027 753.149C337.029 753.149 301.599 716.268 301.599 678.667C301.599 642.515 331.969 602.019 384.027 602.019Z" fill="white"/>
<path d="M271.167 407.513H287.858L270.868 390.366L271.167 407.513Z" fill="#7D7B78"/>
<path opacity="0.66" d="M338.086 363.352L326.461 274.417L347.816 237.909C329.949 240.609 312.633 245.478 295.981 252.312C286.426 269.001 274.594 294.45 279.364 311.594C287.001 339.039 310.481 377.935 310.481 377.935L338.086 363.352Z" fill="#82827E"/>
<path opacity="0.66" d="M470.077 390.366C470.077 390.366 464.258 411.797 451.179 402.805C438.099 393.813 417.783 374.277 417.783 374.277L439.407 293.333L381.421 258.025L392.795 235.419L481.035 288.051L470.077 390.366Z" fill="#82827E"/>
<path d="M394.159 224.907V258.024L416.63 261.845L458.941 285.314L426.55 369.592L469.512 396.122C474.636 399.287 481.178 395.483 481.037 389.462C480.91 384.035 480.157 377.437 477.971 370.659L506.849 296.184C513.484 279.074 506.17 259.712 489.878 251.261L432.897 221.706L394.159 224.907Z" fill="#C73C27"/>
<path d="M426.548 369.592L469.51 396.122C474.633 399.287 481.176 395.483 481.035 389.463C480.908 384.035 480.155 377.439 477.969 370.66C477.969 370.66 454.537 365.743 435.35 346.692L426.548 369.592Z" fill="#00D6CA"/>
<path d="M394.159 258.024H381.424L346.752 299.183L359.02 382.393L314.87 402.215C310.593 404.136 305.765 401.135 305.526 396.453C305.207 390.176 305.73 381.758 309.412 374.392L299.202 295.815C297.905 285.83 301.316 275.809 308.435 268.69L355.417 221.706L394.157 224.906V258.024H394.159Z" fill="#C73C27"/>
<path d="M359.022 382.395L354.697 353.067C332.239 377.611 309.415 374.394 309.415 374.394C305.733 381.76 305.209 390.18 305.529 396.455C305.767 401.136 310.596 404.136 314.873 402.215L359.022 382.395Z" fill="#00D6CA"/>
<path opacity="0.22" d="M493.736 253.62C489.306 258.319 486.57 264.634 486.57 271.603C486.57 283.92 495.066 294.225 506.51 297.052L506.847 296.184C512.929 280.5 507.265 262.95 493.736 253.62Z" fill="#ECEDEE"/>
<path opacity="0.22" d="M322.026 283.242C322.026 275.591 318.179 268.843 312.32 264.809L308.437 268.691C301.317 275.811 297.906 285.831 299.203 295.816L300.471 305.572C312.444 305.138 322.026 295.322 322.026 283.242Z" fill="#ECEDEE"/>
<path d="M432.897 221.708L398.476 224.552C395.426 235.91 394.529 250.415 394.268 258.043L416.63 261.846L442.996 276.471C448.769 258.024 456.837 245.092 462.868 237.253L432.897 221.708Z" fill="#34251E"/>
<path d="M479.642 377.081C479.209 374.978 478.671 372.831 477.969 370.66C477.969 370.66 466.917 368.341 453.778 360.716C455.665 366.028 461.542 374.064 479.642 377.081Z" fill="#34251E"/>
<path d="M333.296 369.34C319.723 375.833 309.414 374.394 309.414 374.394C308.117 376.988 307.23 379.711 306.615 382.427C314.685 381.899 327.043 379.355 333.296 369.34Z" fill="#34251E"/>
<path opacity="0.22" d="M355.419 221.708L308.437 268.692C301.317 275.811 297.906 285.831 299.203 295.816L299.381 297.18C337.589 291.298 368.699 243.658 380.153 223.751L355.419 221.708Z" fill="#ECEDEE"/>
<path d="M355.419 100.093C355.419 100.093 342.087 105.693 334.886 122.495C327.685 139.297 316.639 174.983 316.639 174.983L355.419 160.099V100.093Z" fill="#D18E86"/>
<path d="M394.159 84.8906L355.419 100.092V221.708C355.419 221.708 368.889 224.907 394.159 224.907C419.428 224.907 432.898 221.708 432.898 221.708V100.092L394.159 84.8906Z" fill="#00C2FF"/>
<path d="M355.418 100.093C355.418 100.093 342.085 105.693 334.885 122.495C332.706 127.58 330.175 134.395 327.706 141.426C335.061 143.081 346.6 146.534 355.42 153.094V100.093H355.418Z" fill="#00C2FF"/>
<path d="M397.554 108.939L355.419 195.305V159.804L397.554 108.939Z" fill="#00C2FF"/>
<path d="M420.06 133.316C420.06 133.316 422.425 186.096 420.06 198.101C417.694 210.107 410.571 225.666 410.571 241.623C410.571 257.58 432.896 209.677 432.896 209.677V161.567L420.06 133.316Z" fill="#00C2FF"/>
<path d="M432.896 100.093L433.091 100.181C445.174 105.605 453.639 116.84 455.518 129.951L464.359 193.247C465.475 201.241 463.455 209.357 458.718 215.894L437.696 244.911V272.884C437.696 276.496 434.287 279.117 430.791 278.207C422.754 276.116 410.569 271.751 410.569 264.511V241.621C410.569 235.398 412.277 229.294 415.503 223.973L432.894 195.303L420.493 137.695C420.496 137.697 415.695 105.693 432.896 100.093Z" fill="#F7A89C"/>
<path d="M458.938 154.427L455.52 129.951C453.638 116.84 445.176 105.605 433.093 100.181L432.897 100.093C415.696 105.693 420.496 137.697 420.496 137.697L424.891 158.114C431.875 155.572 444.074 152.499 458.938 154.427Z" fill="#1C1C1B"/>
<path d="M452.9 202.505C452.9 207.66 455.412 212.219 459.266 215.06C463.591 208.671 465.432 200.91 464.362 193.247L463.587 187.706C457.381 189.766 452.9 195.607 452.9 202.505Z" fill="#EF7D6E"/>
<path d="M432.896 195.304L439.41 185.166" stroke="#983533" stroke-width="1.60027" stroke-miterlimit="10"/>
<path d="M394.244 97.3908H394.059C388.996 97.3908 384.891 93.2862 384.891 88.2225V72.9766H403.411V88.2225C403.411 93.2862 399.306 97.3908 394.244 97.3908Z" fill="#F7A89C"/>
<path d="M407.42 60.2176C407.42 60.2176 409.754 57.5405 409.754 52.5401C409.754 47.5397 410.786 37.2502 403.411 32.9644C396.036 28.6786 381.318 22.1046 383.605 27.5345C385.891 32.9644 384.177 32.2498 379.174 32.1072C374.172 31.9647 375.175 49.2223 379.174 55.9705C383.175 62.7169 407.42 60.2176 407.42 60.2176Z" fill="#4D3529"/>
<path d="M384.892 60.8989C384.892 63.6217 382.908 65.8289 380.461 65.8289C378.015 65.8289 376.031 63.6217 376.031 60.8989C376.031 58.176 378.015 55.9689 380.461 55.9689C382.908 55.9689 384.892 58.176 384.892 60.8989Z" fill="#F7A89C"/>
<path d="M403.411 60.8989C403.411 63.6217 405.395 65.8289 407.841 65.8289C410.288 65.8289 412.271 63.6217 412.271 60.8989C412.271 58.176 410.288 55.9689 407.841 55.9689C405.395 55.9689 403.411 58.176 403.411 60.8989Z" fill="#F7A89C"/>
<path d="M394.286 80.8864H394.02C386.765 80.8864 380.884 75.006 380.884 67.7509V49.101C380.884 43.826 385.161 39.549 390.436 39.549H397.871C403.146 39.549 407.423 43.826 407.423 49.101V67.7509C407.421 75.0042 401.539 80.8864 394.286 80.8864Z" fill="#F7A89C"/>
<path d="M384.891 72.9764V88.2223C384.891 88.4775 384.909 88.7257 384.93 88.9756C396.957 88.9105 403.413 77.183 403.413 77.183L393.178 72.9747L384.891 72.9764Z" fill="#983533"/>
<path d="M389.179 55.2541C389.179 56.2802 388.732 57.111 388.179 57.111C387.626 57.111 387.179 56.2785 387.179 55.2541C387.179 54.228 387.626 53.3972 388.179 53.3972C388.73 53.3972 389.179 54.228 389.179 55.2541Z" fill="#4D3529"/>
<path d="M390.75 49.1097C390.75 49.1097 387.464 47.5379 384.891 49.1097" stroke="#4D3529" stroke-width="1.60027" stroke-miterlimit="10" stroke-linecap="round"/>
<path d="M400.125 57.111C400.677 57.111 401.125 56.2796 401.125 55.2541C401.125 54.2286 400.677 53.3972 400.125 53.3972C399.573 53.3972 399.125 54.2286 399.125 55.2541C399.125 56.2796 399.573 57.111 400.125 57.111Z" fill="#4D3529"/>
<path d="M397.553 49.1097C397.553 49.1097 400.839 47.5379 403.411 49.1097" stroke="#4D3529" stroke-width="1.60027" stroke-miterlimit="10" stroke-linecap="round"/>
<path d="M400.126 65.3994C394.152 64.4701 396.553 64.4701 394.152 64.4701C391.751 64.4701 394.152 64.4701 388.178 65.3994C382.205 66.3288 380.883 55.9689 380.883 55.9689V67.7492C380.883 75.0042 386.763 80.8847 394.018 80.8847H394.15H394.282C401.537 80.8847 407.418 75.0042 407.418 67.7492V55.9689C407.421 55.9689 406.1 66.3288 400.126 65.3994Z" fill="#4D3529"/>
<path d="M317.774 173.12L388.915 74.4145C389.811 73.1719 391.585 72.9818 392.724 74.0026L392.759 74.0343C393.592 74.7823 393.847 75.9827 393.39 77.0036L388.942 86.9375L393.064 90.5703C399.259 96.0301 400.481 105.22 395.929 112.11L343.744 191.087C338.596 198.877 327.812 200.447 320.657 194.447L320.409 194.24C314.136 188.973 312.987 179.763 317.774 173.12Z" fill="#F7A89C"/>
<path d="M319.883 176.901C318.404 176.901 316.975 177.096 315.599 177.429C313.677 183.341 315.41 190.042 320.411 194.236L320.659 194.444C325.728 198.694 332.61 199.129 338.027 196.262C338.052 195.877 338.086 195.495 338.086 195.104C338.086 185.05 329.936 176.901 319.883 176.901Z" fill="#EF7D6E"/>
<path d="M419.88 274.417V253.62" stroke="#983533" stroke-width="1.60027" stroke-miterlimit="10"/>
<path opacity="0.41" d="M458.72 215.892C463.457 209.355 465.477 201.239 464.362 193.245L455.521 129.949C454.172 120.557 449.434 112.14 442.42 106.121C440.681 113.867 437.842 133.761 443.441 167.729C450.87 212.802 437.7 244.911 437.7 244.911L458.72 215.892Z" fill="white"/>
<path opacity="0.41" d="M412.271 60.8988C412.271 58.7374 411.012 56.921 409.273 56.2557C409.55 55.2084 409.754 53.9834 409.754 52.5401C409.754 47.5397 410.785 37.2502 403.41 32.9644C403.319 32.9116 403.22 32.8553 403.127 32.8025C402.842 35.418 402.273 38.389 401.124 40.1315C399.667 44.1533 394.191 70.5318 401.078 78.9767C404.875 76.6745 407.418 72.5154 407.418 67.7508V65.7831C407.559 65.7989 407.695 65.8306 407.839 65.8306C410.287 65.8288 412.271 63.6217 412.271 60.8988Z" fill="white"/>
<path opacity="0.41" d="M393.064 90.5686C393.064 90.5686 345.358 151.691 347.655 185.166L395.929 112.109C400.481 105.22 399.259 96.0284 393.064 90.5686Z" fill="white"/>
<path d="M399.516 154.898C393.588 167.761 368.413 191.221 355.417 202.813V221.708C399.254 209.346 407.595 137.368 399.516 154.898Z" fill="#00C2FF"/>
<path opacity="0.41" d="M341.561 364.562L333.296 297.054L381.424 244.876H399.125" stroke="#34251E" stroke-width="1.76009" stroke-miterlimit="10"/>
<path opacity="0.41" d="M442.147 259.442L472.667 278.39L444.847 354.837" stroke="#34251E" stroke-width="1.76009" stroke-miterlimit="10"/>
</svg>
