<svg xmlns="http://www.w3.org/2000/svg" width="186" height="57" viewBox="0 0 186 57" fill="none">
<path d="M44.6975 31.5097C44.6975 29.4217 45.1252 27.5727 45.9805 25.9627C46.861 24.3275 48.0434 23.0571 49.5276 22.1515C51.0118 21.2458 52.647 20.793 54.4331 20.793C55.9174 20.793 57.2255 21.0823 58.3576 21.6609C59.5148 22.2143 60.4456 22.9313 61.15 23.8118V21.0949H66.4706V51.962H61.15V39.1321C60.4456 40.0378 59.5022 40.7925 58.3198 41.3962C57.1375 42 55.8042 42.3019 54.3199 42.3019C52.559 42.3019 50.9364 41.8491 49.4521 40.9434C47.9931 40.0126 46.8359 38.7296 45.9805 37.0945C45.1252 35.4593 44.6975 33.5977 44.6975 31.5097ZM61.15 31.5474C61.15 30.2645 60.8858 29.1576 60.3575 28.2268C59.8292 27.296 59.1374 26.5916 58.2821 26.1136C57.4519 25.6356 56.5589 25.3967 55.6029 25.3967C54.6721 25.3967 53.7791 25.6356 52.9237 26.1136C52.0936 26.5916 51.4144 27.296 50.8861 28.2268C50.3578 29.1324 50.0936 30.2267 50.0936 31.5097C50.0936 32.7927 50.3578 33.9122 50.8861 34.8681C51.4144 35.7989 52.0936 36.5033 52.9237 36.9813C53.7791 37.4592 54.6721 37.6982 55.6029 37.6982C56.5589 37.6982 57.4519 37.4592 58.2821 36.9813C59.1374 36.5033 59.8292 35.7989 60.3575 34.8681C60.8858 33.9373 61.15 32.8304 61.15 31.5474ZM91.3656 21.0949V42H86.045V39.3586C85.3657 40.2642 84.4727 40.9812 83.3658 41.5094C82.284 42.0126 81.1017 42.2641 79.8187 42.2641C78.1835 42.2641 76.737 41.9245 75.4792 41.2453C74.2214 40.5409 73.2277 39.5221 72.4981 38.1888C71.7937 36.8303 71.4416 35.2203 71.4416 33.3587V21.0949H76.7244V32.604C76.7244 34.2643 77.1395 35.5473 77.9697 36.453C78.7999 37.3335 79.9319 37.7737 81.3658 37.7737C82.8249 37.7737 83.9695 37.3335 84.7997 36.453C85.6299 35.5473 86.045 34.2643 86.045 32.604V21.0949H91.3656ZM99.2572 18.6044C98.3264 18.6044 97.5465 18.3151 96.9176 17.7365C96.3139 17.1327 96.012 16.3906 96.012 15.5101C96.012 14.6296 96.3139 13.9001 96.9176 13.3215C97.5465 12.7177 98.3264 12.4159 99.2572 12.4159C100.188 12.4159 100.955 12.7177 101.559 13.3215C102.188 13.9001 102.502 14.6296 102.502 15.5101C102.502 16.3906 102.188 17.1327 101.559 17.7365C100.955 18.3151 100.188 18.6044 99.2572 18.6044ZM101.861 21.0949V42H96.578V21.0949H101.861ZM111.91 37.6605H121.231V42H105.911V37.736L115.042 25.4344H105.948V21.0949H121.118V25.3589L111.91 37.6605ZM151.283 20.793C153.849 20.793 155.912 21.5854 157.471 23.1703C159.056 24.73 159.849 26.9186 159.849 29.7362V42H154.566V30.4531C154.566 28.8179 154.151 27.5727 153.321 26.7174C152.49 25.8369 151.358 25.3967 149.925 25.3967C148.491 25.3967 147.346 25.8369 146.491 26.7174C145.66 27.5727 145.245 28.8179 145.245 30.4531V42H139.963V30.4531C139.963 28.8179 139.547 27.5727 138.717 26.7174C137.887 25.8369 136.755 25.3967 135.321 25.3967C133.862 25.3967 132.705 25.8369 131.85 26.7174C131.019 27.5727 130.604 28.8179 130.604 30.4531V42H125.321V21.0949H130.604V23.6231C131.283 22.7426 132.151 22.0508 133.208 21.5477C134.29 21.0446 135.472 20.793 136.755 20.793C138.39 20.793 139.849 21.1452 141.132 21.8496C142.415 22.5288 143.409 23.5099 144.113 24.7929C144.793 23.5854 145.774 22.6168 147.057 21.8873C148.365 21.1578 149.774 20.793 151.283 20.793ZM184.295 31.0946C184.295 31.8493 184.245 32.5285 184.144 33.1323H168.862C168.988 34.6417 169.516 35.8241 170.447 36.6794C171.377 37.5347 172.522 37.9624 173.881 37.9624C175.843 37.9624 177.239 37.1196 178.069 35.4341H183.767C183.163 37.4467 182.006 39.107 180.295 40.4151C178.585 41.6981 176.484 42.3396 173.994 42.3396C171.981 42.3396 170.17 41.8994 168.56 41.0189C166.975 40.1133 165.73 38.8428 164.824 37.2077C163.944 35.5725 163.503 33.6857 163.503 31.5474C163.503 29.384 163.944 27.4846 164.824 25.8495C165.705 24.2143 166.937 22.9565 168.522 22.076C170.107 21.1955 171.931 20.7553 173.994 20.7553C175.981 20.7553 177.755 21.1829 179.314 22.0382C180.899 22.8936 182.119 24.1137 182.975 25.6985C183.855 27.2582 184.295 29.0569 184.295 31.0946ZM178.824 29.5852C178.799 28.2268 178.308 27.145 177.352 26.34C176.396 25.5099 175.226 25.0948 173.843 25.0948C172.535 25.0948 171.428 25.4973 170.522 26.3023C169.642 27.0821 169.101 28.1765 168.9 29.5852H178.824Z" fill="#ffffff"/>
<path d="M27.3157 31.7758C26.866 35.5204 24.4134 37.0166 23.3542 38.1028C22.2933 39.1921 22.4833 39.4091 22.5546 41.0066C22.5665 41.2043 22.5378 41.4023 22.4702 41.5884C22.4027 41.7746 22.2977 41.9449 22.1618 42.0889C22.026 42.233 21.862 42.3477 21.6801 42.4259C21.4982 42.5042 21.3023 42.5444 21.1042 42.5441H16.8957C16.6977 42.5442 16.5018 42.5038 16.3199 42.4255C16.1381 42.3472 15.9741 42.2325 15.8382 42.0885C15.7022 41.9446 15.5971 41.7743 15.5293 41.5883C15.4615 41.4023 15.4324 41.2043 15.4438 41.0066C15.4438 39.4391 15.5895 39.075 14.6458 38.1028C13.4425 36.8995 10.6115 35.2006 10.6115 30.5281C10.6043 29.3676 10.8375 28.2181 11.2966 27.1521C11.7557 26.0861 12.4306 25.1269 13.2788 24.3347C14.1271 23.5425 15.1302 22.9347 16.225 22.5494C17.3198 22.1642 18.4826 22.01 19.64 22.0964C20.7973 22.1828 21.9243 22.5081 22.9497 23.0517C23.9751 23.5953 24.8768 24.3454 25.598 25.2548C26.3191 26.1642 26.844 27.2131 27.1397 28.3354C27.4353 29.4578 27.4952 30.6292 27.3157 31.7758Z" stroke="#ffffff" stroke-width="1.94872" stroke-linecap="round" stroke-linejoin="round" fill="#ffffff"/>
<path d="M16.5616 42.457V44.851C16.5616 45.5049 16.9257 46.0416 17.3738 46.0416H20.6244C21.0756 46.0416 21.4382 45.5033 21.4382 44.851V42.457M17.7649 25.7686C16.83 25.7691 15.9335 26.1407 15.2726 26.802C14.6117 27.4632 14.2404 28.3598 14.2404 29.2947M30.6089 30.848H33.5127M27.6861 21.329L29.746 19.269M29.2694 38.9166L31.3293 40.975M18.9999 15.7635V18.1116M8.29656 19.2675L10.3422 21.329M6.71323 40.975L8.7589 38.9166M7.3909 30.848H4.48865" stroke="#ffffff" stroke-width="1.94872" stroke-linecap="round" stroke-linejoin="round" fill="#ffffff"/>
</svg>